 <svg version="1.0" xmlns="http://www.w3.org/2000/svg" width="700.000000pt" height="636.000000pt" viewBox="0 0 700.000000 636.000000" preserveAspectRatio="xMidYMid meet">
<metadata>
Created by potrace 1.12, written by Peter Selinger 2001-2015
</metadata>
<g transform="translate(0.000000,636.000000) scale(0.100000,-0.100000)" fill="#000000" stroke="none">
<path d="M0 3180 l0 -3180 3500 0 3500 0 0 3180 0 3180 -3500 0 -3500 0 0
-3180z m3667 2786 c26 -8 77 -19 113 -25 55 -9 214 -61 360 -117 19 -7 52 -13
73 -14 21 0 53 -6 71 -14 18 -7 57 -17 87 -21 30 -4 70 -15 89 -25 19 -9 52
-20 74 -24 21 -4 46 -11 55 -16 9 -5 52 -21 96 -36 44 -15 109 -41 145 -59 59
-29 102 -52 258 -140 235 -132 588 -439 748 -650 37 -49 87 -114 111 -144 24
-30 56 -75 70 -100 15 -25 32 -53 38 -61 12 -15 48 -79 115 -205 89 -166 104
-199 119 -260 7 -27 16 -54 20 -60 5 -5 14 -34 21 -64 7 -30 19 -66 26 -80 8
-14 14 -41 14 -59 0 -17 9 -49 20 -69 11 -21 20 -50 20 -64 0 -15 9 -57 21
-95 20 -63 21 -90 21 -434 -1 -344 -4 -410 -22 -435 -4 -5 -13 -41 -19 -80 -7
-38 -16 -74 -21 -80 -5 -6 -16 -40 -24 -75 -20 -88 -80 -280 -105 -335 -152
-339 -340 -629 -564 -870 -214 -231 -479 -444 -697 -562 -30 -16 -69 -38 -86
-49 -32 -19 -185 -96 -239 -120 -16 -7 -49 -18 -72 -24 -23 -6 -45 -14 -47
-19 -3 -5 -25 -12 -49 -15 -23 -4 -56 -15 -72 -26 -17 -11 -39 -20 -50 -20
-11 -1 -38 -7 -60 -15 -22 -8 -92 -27 -155 -42 l-115 -27 -505 0 c-365 -1
-520 3 -560 12 -30 6 -84 18 -120 26 -108 23 -202 48 -250 67 -25 9 -63 20
-85 24 -22 3 -56 12 -75 20 -19 7 -73 25 -120 40 -47 15 -130 47 -185 71 -123
53 -434 210 -456 230 -8 7 -19 14 -23 14 -22 0 -369 244 -481 338 -141 119
-324 301 -398 397 -26 33 -51 65 -57 71 -20 26 -108 161 -123 190 -28 54 -57
136 -83 234 -20 75 -27 132 -34 270 -4 96 -14 193 -21 215 -21 65 -19 542 3
620 9 33 19 92 23 130 4 39 13 88 21 110 7 22 14 48 14 57 0 19 54 193 99 318
16 47 33 105 37 130 4 25 11 54 17 65 11 19 32 89 62 204 8 30 19 59 24 64 6
6 11 20 11 32 0 26 97 264 116 286 8 8 14 20 14 25 0 5 6 20 14 34 7 14 36 69
64 122 52 99 130 224 164 262 11 12 54 66 98 121 93 119 274 297 356 351 32
21 78 54 102 72 23 19 57 43 75 53 56 32 239 119 248 119 6 0 21 7 35 16 14 9
75 34 137 55 104 36 155 49 342 85 39 8 147 17 240 20 94 4 178 11 187 15 9 5
52 14 95 20 42 6 86 15 97 21 53 29 397 31 493 4z"></path>
<path d="M3535 5879 c-11 -17 -1 -20 86 -32 62 -7 84 -7 87 1 2 7 10 12 18 12
27 0 14 18 -17 24 -51 10 -167 7 -174 -5z"></path>
<path d="M2900 5811 c-86 -32 -148 -61 -205 -95 -22 -13 -58 -33 -80 -45 -64
-33 -244 -164 -313 -228 -35 -32 -73 -61 -84 -65 -11 -5 -18 -14 -15 -20 6
-19 65 -11 95 12 13 11 32 20 41 20 9 0 33 8 52 18 50 25 155 59 209 67 25 4
60 13 78 22 18 8 67 16 108 19 53 3 84 10 104 24 17 11 42 28 58 39 41 27 181
89 295 130 31 12 81 30 110 40 28 11 71 23 95 26 59 9 52 22 -15 30 -32 3 -80
11 -108 16 -27 6 -117 13 -200 15 -145 4 -152 3 -225 -25z"></path>
<path d="M2605 5810 c-16 -4 -48 -8 -70 -9 -54 -1 -211 -39 -261 -62 -23 -10
-47 -19 -54 -19 -7 0 -31 -9 -54 -19 -23 -11 -94 -43 -158 -71 -242 -107 -538
-342 -701 -555 -20 -28 -62 -82 -92 -121 -30 -40 -80 -120 -112 -179 -108
-201 -163 -309 -163 -320 0 -7 -8 -23 -19 -36 -10 -13 -22 -40 -26 -59 -4 -19
-13 -45 -21 -57 -16 -25 -18 -43 -5 -43 12 0 52 42 81 85 138 205 437 518 600
628 14 9 44 30 68 47 23 16 45 30 48 30 3 0 25 16 48 35 23 19 90 59 148 89
81 42 118 68 159 113 30 32 57 60 60 63 4 3 51 46 105 96 55 50 113 104 131
118 51 43 236 166 248 166 7 0 20 9 30 20 10 11 26 20 35 20 22 0 44 25 35 40
-7 11 -16 11 -60 0z"></path>
<path d="M3986 5757 c-23 -17 -15 -22 49 -32 28 -4 57 -13 67 -22 18 -16 95
-15 91 2 -2 6 -15 14 -30 19 -16 5 -35 15 -44 23 -25 21 -110 28 -133 10z"></path>
<path d="M3630 5744 c-25 -8 -72 -20 -105 -28 -61 -15 -152 -42 -235 -70 -43
-15 -99 -40 -164 -74 -16 -8 -43 -18 -60 -21 -16 -4 -31 -12 -34 -19 -3 -9 29
-12 130 -12 87 0 173 -7 248 -20 63 -11 135 -20 160 -20 43 -1 97 -9 300 -44
159 -28 338 -85 485 -156 22 -11 89 -42 148 -69 59 -28 131 -65 160 -83 29
-18 59 -38 68 -43 121 -74 304 -220 424 -339 79 -78 132 -123 138 -117 5 5 1
21 -12 40 -12 17 -31 46 -43 64 -63 92 -267 329 -393 457 -126 128 -154 152
-236 195 -50 28 -117 64 -148 82 -31 17 -63 35 -71 38 -8 3 -28 13 -45 20
-111 52 -394 157 -521 195 -34 10 -71 23 -82 29 -27 14 -57 13 -112 -5z"></path>
<path d="M4405 5670 c-9 -14 3 -30 22 -30 16 0 15 1 193 -139 69 -54 141 -106
160 -116 49 -25 168 -103 175 -115 3 -5 12 -10 20 -10 18 0 98 -53 343 -225
186 -132 473 -360 565 -450 47 -45 73 -35 33 13 -14 16 -26 35 -26 40 0 6 -6
15 -14 19 -8 4 -37 37 -65 73 -27 36 -60 77 -73 93 -39 46 -293 300 -340 338
-85 70 -174 136 -221 165 -27 16 -67 41 -90 56 -159 101 -308 176 -448 224
-56 19 -122 44 -145 55 -47 21 -79 24 -89 9z"></path>
<path d="M2940 5414 c-117 -14 -213 -58 -309 -141 -9 -7 -38 -32 -66 -54 -151
-122 -161 -132 -316 -294 -97 -102 -189 -215 -249 -303 -14 -21 -45 -64 -70
-97 -25 -33 -57 -78 -71 -100 -53 -81 -239 -445 -239 -467 0 -5 -6 -24 -14
-41 -18 -38 -62 -173 -75 -225 -5 -20 -23 -91 -40 -157 -18 -66 -38 -172 -46
-235 -8 -63 -22 -167 -30 -230 -17 -121 -15 -176 11 -360 9 -58 19 -139 23
-180 5 -41 16 -104 25 -140 78 -303 128 -452 199 -598 25 -51 49 -98 55 -105
5 -6 13 -23 17 -37 4 -14 16 -36 26 -49 11 -13 19 -32 19 -41 0 -10 7 -23 14
-30 8 -6 24 -31 36 -55 27 -56 62 -100 159 -200 43 -44 83 -91 90 -103 6 -12
20 -22 30 -22 10 0 24 -7 31 -15 18 -21 378 -195 405 -195 7 0 23 -8 36 -19
13 -10 41 -21 63 -25 21 -4 52 -13 70 -21 68 -28 299 -72 511 -96 146 -17 462
-6 600 20 188 36 403 92 430 112 6 4 66 32 135 63 154 69 275 133 361 194 36
26 88 62 115 81 175 123 387 339 551 561 102 140 265 453 304 587 63 218 98
449 99 653 0 170 -10 275 -45 460 -42 219 -58 285 -86 346 -11 23 -19 47 -19
55 0 100 -426 563 -685 744 -38 27 -91 66 -116 87 -55 45 -124 93 -194 133
-27 16 -62 36 -76 45 -26 16 -232 134 -259 149 -13 7 -80 38 -286 132 -22 11
-45 19 -51 19 -6 0 -16 6 -22 14 -7 8 -27 17 -45 20 -19 4 -39 13 -46 21 -7 8
-19 15 -27 15 -7 0 -30 8 -51 17 -20 9 -68 24 -107 34 -38 10 -110 30 -160 44
-85 26 -102 27 -335 30 -135 1 -261 1 -280 -1z m1158 -619 c18 -6 14 -46 -8
-80 -11 -16 -20 -46 -20 -66 0 -19 -7 -44 -15 -55 -8 -10 -17 -40 -21 -66 -4
-26 -15 -55 -25 -64 -14 -12 -19 -31 -19 -64 0 -32 -6 -55 -20 -73 -11 -14
-20 -40 -20 -59 0 -19 -8 -50 -19 -71 -10 -20 -22 -57 -25 -81 -4 -24 -13 -50
-21 -56 -8 -6 -17 -33 -21 -58 -3 -26 -15 -62 -25 -80 -10 -18 -19 -50 -19
-71 0 -23 -8 -48 -20 -64 -11 -14 -20 -38 -20 -53 0 -15 -9 -46 -19 -68 -10
-23 -21 -60 -24 -84 -3 -24 -12 -51 -20 -60 -8 -9 -18 -37 -22 -61 -4 -24 -16
-62 -26 -85 -10 -23 -19 -52 -19 -66 0 -14 -8 -36 -17 -50 -9 -13 -20 -48 -24
-78 -4 -30 -15 -62 -23 -71 -9 -10 -16 -30 -16 -45 0 -15 -9 -48 -20 -74 -10
-26 -24 -66 -30 -89 -6 -23 -17 -54 -25 -70 -8 -15 -15 -42 -15 -59 0 -17 -9
-43 -20 -57 -12 -15 -20 -40 -20 -64 0 -21 -8 -54 -18 -73 -11 -19 -22 -55
-26 -80 -4 -24 -14 -52 -22 -61 -8 -9 -18 -39 -23 -67 -4 -28 -15 -62 -24 -76
-10 -14 -17 -40 -17 -58 0 -18 -9 -48 -20 -66 -11 -18 -20 -45 -20 -60 0 -15
-8 -44 -19 -64 -10 -20 -21 -56 -25 -80 -4 -24 -13 -52 -20 -63 -7 -11 -16
-38 -20 -60 -4 -22 -14 -50 -21 -62 -8 -11 -19 -49 -24 -83 -6 -35 -17 -70
-24 -79 -8 -9 -17 -33 -20 -53 -3 -20 -15 -58 -26 -83 l-20 -46 -83 3 -83 3 1
58 c1 35 7 64 16 75 9 9 19 38 22 64 4 25 13 51 21 58 7 6 16 34 20 63 4 29
16 69 26 89 11 21 19 49 19 63 0 14 9 43 20 65 11 22 20 50 20 62 0 13 9 41
20 63 11 22 20 51 20 65 0 14 9 43 19 63 11 21 22 57 26 80 4 23 14 53 23 67
9 14 19 49 23 78 4 30 15 62 23 71 9 10 16 31 16 47 0 16 9 48 20 69 11 22 23
58 27 80 3 22 14 54 24 71 11 17 19 46 19 63 0 17 6 42 14 54 8 12 19 47 25
77 7 30 18 61 25 70 7 8 16 37 19 63 2 26 12 56 21 66 9 10 16 32 16 50 0 17
11 58 25 91 14 33 25 67 25 77 1 10 9 36 20 58 11 22 19 51 20 65 0 14 9 43
20 65 11 22 20 53 20 70 0 16 9 44 20 60 11 17 20 44 20 60 0 17 9 48 19 71
10 23 22 60 26 82 3 22 13 46 20 52 7 6 16 33 20 60 4 27 15 66 26 87 10 20
19 49 19 63 0 14 9 43 20 65 11 22 20 48 20 59 0 11 9 38 19 60 10 23 21 60
24 84 3 24 12 51 21 61 9 10 19 40 22 67 4 27 15 65 26 84 10 19 18 46 18 61
0 26 21 52 50 61 15 5 125 0 148 -7z m-1470 -783 c36 -33 52 -55 52 -73 0 -25
-67 -124 -133 -194 -20 -22 -37 -44 -37 -48 0 -9 -29 -49 -70 -97 -14 -16 -40
-48 -57 -72 -18 -24 -64 -83 -103 -132 -38 -49 -70 -91 -70 -95 0 -3 -20 -27
-45 -53 -54 -56 -57 -83 -14 -124 27 -25 59 -66 94 -123 6 -9 23 -29 39 -46
28 -30 97 -116 126 -159 8 -13 34 -45 58 -73 23 -28 42 -55 42 -60 0 -5 18
-28 40 -51 22 -22 40 -46 40 -51 0 -6 8 -15 18 -20 9 -5 39 -41 65 -80 56 -81
56 -93 -5 -152 -48 -46 -69 -49 -98 -11 -11 15 -70 89 -130 164 -61 75 -110
141 -110 145 0 5 -14 22 -31 39 -27 25 -58 65 -94 123 -6 9 -25 32 -44 51 -18
19 -40 46 -49 60 -25 38 -80 110 -118 155 -70 83 -94 118 -94 138 0 26 33 76
132 199 43 53 78 99 78 103 0 3 29 40 63 83 35 42 68 85 73 94 5 10 26 37 46
60 61 70 208 257 208 264 0 9 61 84 69 84 3 0 30 -22 59 -48z m1803 19 c13
-11 44 -47 69 -81 25 -34 82 -109 128 -166 45 -56 82 -108 82 -113 0 -6 6 -14
14 -18 17 -10 116 -140 116 -153 0 -5 9 -14 20 -20 11 -6 20 -15 20 -21 0 -6
14 -25 31 -42 17 -17 49 -59 72 -94 22 -35 43 -63 47 -63 9 0 46 -52 54 -77 5
-17 -5 -35 -49 -83 -30 -35 -55 -66 -55 -71 0 -8 -30 -44 -80 -95 -11 -12 -20
-24 -20 -28 0 -10 -148 -200 -187 -240 -13 -13 -23 -26 -23 -30 0 -4 -28 -42
-62 -85 -35 -44 -83 -107 -108 -141 -25 -34 -52 -67 -61 -73 -9 -7 -21 -22
-28 -34 -20 -39 -62 -30 -110 22 -22 24 -41 52 -41 61 0 15 24 48 87 119 10
11 23 31 30 45 6 14 30 45 53 70 23 25 56 64 73 88 18 24 69 90 115 147 45 57
82 108 82 112 0 4 19 28 42 53 23 25 47 52 53 61 5 10 23 33 38 53 l29 35 -19
33 c-10 18 -54 78 -98 135 -44 56 -109 140 -145 187 -36 48 -102 133 -147 190
-46 58 -83 108 -83 113 0 5 -18 27 -40 48 -22 21 -40 47 -40 56 0 23 81 119
101 119 9 0 27 -9 40 -19z"></path>
<path d="M2556 5365 c-16 -9 -57 -22 -90 -29 -82 -19 -153 -43 -201 -68 -105
-54 -280 -164 -324 -204 -48 -43 -138 -164 -246 -329 -67 -102 -66 -102 -211
-373 -19 -34 -34 -69 -34 -76 0 -7 -8 -24 -18 -37 -28 -38 -64 -135 -137 -374
-15 -49 -33 -110 -41 -135 -28 -91 -55 -219 -65 -306 -5 -49 -16 -127 -24
-174 -19 -109 -19 -301 0 -393 8 -40 19 -112 24 -160 10 -87 20 -127 69 -287
34 -112 69 -199 130 -330 29 -61 104 -194 122 -215 9 -11 20 -28 23 -37 4 -10
11 -18 17 -18 14 0 13 40 -3 59 -11 14 -42 105 -92 271 -7 25 -16 65 -19 89
-4 24 -13 55 -21 70 -8 16 -17 52 -21 82 -3 30 -13 79 -20 109 -25 96 -38 422
-25 630 7 102 16 203 22 225 6 22 16 75 24 118 7 43 18 84 24 91 6 6 13 32 16
56 4 25 15 70 25 100 9 30 25 82 35 115 68 236 232 552 425 815 22 30 48 66
57 80 90 131 424 475 536 552 51 36 97 80 91 90 -7 11 -15 10 -48 -7z"></path>
<path d="M4091 5291 c-22 -14 -3 -31 34 -31 24 0 38 -6 45 -20 6 -11 21 -20
34 -20 13 0 34 -8 47 -19 13 -10 39 -22 57 -26 18 -4 36 -13 39 -20 2 -8 18
-17 34 -20 16 -4 31 -11 35 -16 3 -5 22 -17 42 -28 72 -36 307 -174 328 -192
11 -11 26 -19 32 -19 7 0 15 -7 19 -15 3 -9 21 -22 39 -30 19 -8 34 -19 34
-25 0 -6 10 -15 23 -21 12 -5 33 -16 46 -24 38 -21 45 -7 15 28 -24 29 -54 52
-106 83 -11 6 -31 23 -46 37 -31 29 -88 72 -117 87 -11 6 -40 24 -65 40 -55
36 -261 140 -276 140 -7 0 -17 6 -23 14 -7 8 -27 17 -45 20 -19 4 -39 13 -46
20 -6 8 -29 18 -52 21 -22 4 -49 16 -59 26 -20 20 -46 24 -68 10z"></path>
<path d="M5040 5113 c1 -8 97 -132 150 -193 81 -93 250 -332 250 -354 0 -5 8
-18 18 -29 25 -28 88 -133 118 -197 14 -30 36 -77 49 -105 13 -27 36 -77 51
-110 15 -33 48 -91 73 -130 25 -38 72 -122 104 -185 33 -63 63 -119 67 -125 4
-5 29 -64 55 -129 50 -126 90 -266 100 -356 4 -30 11 -80 17 -110 6 -30 13
-98 17 -150 6 -100 20 -122 34 -55 5 22 13 54 19 70 6 17 15 59 20 95 5 36 15
94 24 130 34 152 55 573 34 712 -19 132 -63 251 -125 345 -72 106 -284 307
-475 450 -52 39 -108 84 -125 100 -16 16 -68 56 -115 88 -47 32 -116 82 -155
112 -38 29 -93 71 -122 93 -48 37 -83 51 -83 33z"></path>
<path d="M1666 4861 c-4 -5 -2 -12 3 -15 5 -4 12 -2 15 3 4 5 2 12 -3 15 -5 4
-12 2 -15 -3z"></path>
<path d="M1452 4792 c-176 -154 -335 -337 -487 -560 -74 -108 -195 -333 -195
-362 0 -10 -9 -28 -19 -42 -11 -13 -22 -41 -26 -61 -4 -20 -13 -41 -20 -47 -8
-6 -16 -44 -20 -88 -3 -42 -12 -95 -20 -117 -7 -22 -19 -94 -25 -159 -6 -65
-13 -122 -15 -126 -6 -10 -30 -292 -45 -525 -11 -166 -10 -189 8 -290 20 -113
69 -236 126 -320 64 -95 269 -273 456 -398 88 -58 131 -88 215 -150 28 -20 70
-48 95 -61 25 -13 73 -47 108 -75 61 -49 81 -59 96 -44 7 7 -92 103 -106 103
-11 0 -98 85 -98 96 0 5 -32 40 -71 78 -79 77 -134 149 -263 341 -71 106 -117
187 -152 266 -15 35 -36 76 -46 91 -10 14 -18 29 -18 33 0 4 -17 48 -39 98
-38 90 -75 208 -107 337 -8 36 -22 144 -30 240 -24 283 3 534 81 759 26 74 36
96 82 185 17 33 46 90 64 126 18 36 58 103 89 149 30 46 60 91 65 99 36 56
245 302 303 355 23 22 42 46 42 53 0 7 9 18 20 24 11 6 18 15 15 21 -10 14
-17 11 -63 -29z"></path>
<path d="M1613 4813 c-4 -10 -48 -61 -99 -113 -161 -165 -348 -410 -436 -570
-111 -202 -171 -333 -184 -400 -4 -19 -10 -42 -15 -51 -13 -27 -57 -299 -64
-399 -6 -91 -3 -118 35 -390 6 -41 20 -101 30 -133 11 -31 20 -65 20 -74 0
-57 200 -492 285 -618 119 -178 277 -376 397 -499 69 -71 92 -89 136 -112 31
-16 21 10 -24 61 -27 31 -60 71 -74 89 -14 19 -55 71 -92 116 -37 46 -74 98
-83 116 -9 18 -20 36 -24 39 -5 3 -37 54 -71 115 -59 105 -85 164 -117 260 -8
25 -21 61 -28 80 -27 71 -47 136 -57 185 -6 28 -17 71 -24 97 -22 75 -45 378
-39 508 8 168 24 341 35 375 5 17 13 62 19 101 6 39 18 87 26 107 8 20 15 47
15 59 1 13 8 41 16 63 9 22 22 65 30 95 34 140 96 295 201 499 34 69 63 129
63 134 0 5 18 36 40 68 22 32 40 61 40 64 0 7 39 63 64 92 18 22 16 53 -4 53
-6 0 -14 -8 -17 -17z"></path>
<path d="M5310 4590 c0 -5 5 -10 10 -10 6 0 10 5 10 10 0 6 -4 10 -10 10 -5 0
-10 -4 -10 -10z"></path>
<path d="M5866 3583 c-13 -13 -5 -97 15 -164 20 -65 21 -86 16 -376 -3 -250
-7 -317 -21 -357 -9 -27 -16 -65 -16 -83 0 -55 -98 -368 -139 -443 -4 -8 -36
-69 -71 -135 -63 -120 -140 -243 -189 -300 -14 -17 -35 -44 -46 -59 -77 -109
-308 -342 -425 -429 -232 -173 -262 -192 -454 -287 -111 -54 -214 -102 -231
-105 -16 -4 -39 -13 -50 -20 -58 -35 -354 -103 -505 -115 -159 -12 -351 -43
-347 -55 10 -29 761 -21 842 9 22 8 58 15 81 16 38 0 161 36 267 77 83 33 174
96 377 261 151 122 460 458 574 622 161 234 215 322 315 515 29 55 56 107 60
115 5 8 27 62 49 120 45 116 62 228 61 415 0 131 -17 341 -31 385 -6 19 -20
73 -30 120 -10 47 -24 108 -30 135 -6 28 -17 57 -24 65 -7 8 -16 27 -19 43 -8
29 -18 40 -29 30z"></path>
<path d="M6326 3544 c-3 -26 -6 -73 -6 -106 0 -32 -6 -91 -14 -131 -8 -40 -17
-97 -21 -127 -8 -74 -42 -231 -66 -306 -10 -33 -19 -69 -19 -80 0 -11 -8 -36
-19 -57 -10 -20 -22 -54 -26 -74 -4 -21 -10 -42 -15 -48 -15 -19 -60 -166 -75
-248 -21 -113 -52 -228 -64 -240 -6 -6 -11 -22 -11 -36 0 -28 -126 -318 -176
-404 -19 -32 -34 -61 -34 -64 0 -24 -191 -272 -290 -378 -134 -142 -324 -297
-467 -380 -35 -20 -65 -41 -69 -46 -3 -5 -13 -9 -23 -9 -10 0 -29 -8 -42 -19
-13 -10 -42 -24 -64 -31 -22 -7 -49 -19 -60 -26 -11 -6 -36 -15 -55 -19 -19
-4 -42 -13 -50 -20 -8 -6 -28 -19 -45 -27 -16 -8 -74 -38 -127 -66 -54 -29
-104 -52 -113 -52 -8 0 -20 -9 -27 -20 -7 -11 -23 -20 -35 -20 -33 0 -75 -19
-68 -30 10 -16 63 -11 102 10 21 11 49 20 63 20 14 0 35 7 48 15 12 9 41 22
64 29 24 8 81 30 128 50 46 20 89 36 96 36 6 0 22 8 35 19 13 10 35 22 49 26
14 4 32 13 40 20 8 8 40 27 71 43 206 108 438 289 652 510 169 174 442 562
518 735 5 12 13 29 18 37 74 120 230 631 231 755 1 28 6 70 11 95 30 131 30
378 0 540 -5 30 -13 81 -16 113 -4 31 -10 57 -14 57 -5 0 -11 -21 -15 -46z"></path>
<path d="M610 2066 c0 -8 4 -17 9 -20 5 -3 12 -21 15 -39 3 -18 14 -48 25 -67
10 -19 22 -46 26 -59 4 -14 27 -52 50 -85 23 -34 62 -90 86 -126 81 -118 343
-370 578 -553 85 -67 262 -182 371 -241 36 -20 76 -42 90 -51 84 -51 378 -181
505 -223 199 -66 287 -92 305 -92 9 0 24 -6 35 -14 28 -19 164 -41 177 -28 15
15 3 29 -34 36 -17 3 -39 12 -47 20 -9 7 -31 18 -48 24 -18 6 -54 26 -80 44
-27 18 -55 38 -65 43 -88 53 -213 150 -381 296 -42 36 -107 81 -144 99 -37 19
-99 53 -138 76 -38 22 -124 72 -190 109 -117 67 -213 129 -286 187 -20 15 -40
28 -44 28 -3 0 -53 33 -111 73 -57 39 -118 81 -135 92 -16 11 -60 43 -97 70
-37 28 -86 62 -109 78 -61 39 -253 206 -253 219 0 6 -10 21 -22 34 -13 13 -34
36 -48 53 -28 33 -40 38 -40 17z"></path>
<path d="M5780 1840 c0 -11 5 -20 10 -20 6 0 10 9 10 20 0 11 -4 20 -10 20 -5
0 -10 -9 -10 -20z"></path>
<path d="M5742 1788 c-7 -7 -12 -16 -12 -21 0 -5 -10 -20 -22 -32 -13 -12 -40
-47 -61 -76 -146 -207 -241 -322 -382 -465 -124 -126 -156 -162 -147 -168 11
-7 115 66 176 122 160 149 361 401 437 550 12 23 25 45 30 48 11 7 12 41 1 48
-5 3 -14 0 -20 -6z"></path>
<path d="M2480 830 c0 -6 11 -15 24 -19 13 -5 26 -16 28 -23 7 -16 116 -93
145 -102 11 -4 28 -15 38 -26 10 -11 25 -20 33 -20 7 0 26 -8 40 -18 33 -22
201 -96 257 -113 22 -6 45 -16 51 -20 6 -5 35 -14 65 -19 30 -6 70 -18 89 -27
30 -15 71 -17 300 -17 252 1 267 2 305 23 23 12 58 21 83 21 24 0 56 7 70 15
15 8 46 19 70 25 29 8 42 16 40 26 -3 12 -49 15 -293 19 -247 4 -313 8 -445
29 -173 28 -305 57 -335 73 -11 6 -39 13 -63 17 -23 3 -59 15 -80 26 -20 11
-52 20 -70 20 -19 0 -46 7 -60 15 -28 16 -116 48 -189 69 -24 6 -48 17 -55 24
-15 15 -48 16 -48 2z"></path>
<path d="M3180 700 c0 -5 25 -10 55 -10 30 0 55 5 55 10 0 6 -25 10 -55 10
-30 0 -55 -4 -55 -10z"></path>
<path d="M2907 454 c-14 -14 6 -24 49 -24 32 0 44 4 44 15 0 11 -11 15 -43 15
-24 0 -47 -3 -50 -6z"></path>
<path d="M4125 450 c-8 -13 20 -24 40 -16 8 3 15 10 15 16 0 13 -47 13 -55 0z"></path>
</g>
</svg>