<?xml version="1.0" standalone="no"?>
<!DOCTYPE svg PUBLIC "-//W3C//DTD SVG 20010904//EN"
 "http://www.w3.org/TR/2001/REC-SVG-20010904/DTD/svg10.dtd">
<svg version="1.0" xmlns="http://www.w3.org/2000/svg"
 width="165.000000pt" height="150.000000pt" viewBox="0 0 165.000000 150.000000"
 preserveAspectRatio="xMidYMid meet">
<metadata>
Created by potrace 1.15, written by Peter Selinger 2001-2017
</metadata>
<g transform="translate(0.000000,150.000000) scale(0.100000,-0.100000)"
fill="#000000" stroke="none">
<path d="M0 750 l0 -750 825 0 825 0 0 750 0 750 -825 0 -825 0 0 -750z m900
645 c30 -8 88 -24 129 -35 114 -31 204 -84 297 -176 129 -128 194 -280 194
-451 0 -282 -229 -566 -515 -638 -132 -33 -327 -16 -486 44 -116 44 -265 151
-330 237 -60 79 -71 120 -72 274 -1 133 0 137 42 270 52 165 96 246 177 328
74 74 162 119 261 134 38 5 88 13 113 17 73 13 132 12 190 -4z"/>
<path d="M573 1366 c-142 -35 -261 -133 -332 -275 -23 -46 -41 -85 -38 -87 2
-2 26 24 53 59 28 35 81 84 124 114 41 28 98 71 125 96 28 24 69 57 93 72 60
40 59 41 -25 21z"/>
<path d="M796 1340 c-87 -28 -88 -36 -4 -44 170 -16 302 -70 414 -169 59 -52
59 -52 30 -12 -93 126 -152 171 -286 219 -83 30 -78 30 -154 6z"/>
<path d="M628 1250 c-110 -73 -219 -224 -263 -361 -52 -165 -41 -317 36 -479
51 -108 94 -149 201 -191 78 -31 90 -33 208 -33 112 0 132 2 192 26 142 56
260 163 322 291 59 119 67 236 28 382 -14 54 -24 69 -101 146 -91 91 -175 146
-316 208 -67 29 -94 35 -170 39 -87 4 -91 3 -137 -28z m327 -162 c-8 -24 -41
-128 -74 -233 -172 -547 -160 -515 -183 -515 -14 0 -19 5 -16 17 3 10 59 188
124 396 109 346 121 377 141 377 21 0 21 -1 8 -42z m-329 -165 c-3 -7 -33 -49
-67 -93 -56 -72 -61 -81 -48 -99 8 -11 40 -53 72 -95 53 -67 64 -96 37 -96 -8
0 -143 163 -164 198 -5 9 19 49 71 117 60 79 81 100 91 92 7 -5 11 -16 8 -24z
m498 -75 l76 -98 -82 -105 c-45 -58 -85 -105 -90 -105 -29 0 -13 38 51 119
l70 90 -69 89 c-51 67 -66 92 -57 101 6 6 14 10 18 9 4 -2 41 -47 83 -100z"/>
<path d="M570 1257 c-98 -33 -147 -83 -218 -223 -99 -196 -105 -406 -15 -562
14 -24 26 -42 28 -40 3 2 -5 33 -17 68 -32 101 -36 245 -9 349 37 140 110 262
221 364 65 60 65 62 10 44z"/>
<path d="M1190 1206 c0 -3 22 -34 49 -69 27 -36 60 -90 75 -121 15 -31 40 -79
56 -107 34 -56 56 -122 66 -194 8 -63 18 -42 34 75 20 149 -3 206 -124 305
-75 61 -156 119 -156 111z"/>
<path d="M308 1096 c-74 -75 -126 -157 -144 -228 -19 -72 -36 -255 -29 -300
10 -58 55 -109 157 -180 110 -76 134 -90 92 -51 -56 51 -125 144 -155 209 -92
202 -56 390 108 565 66 71 45 60 -29 -15z"/>
<path d="M335 1088 c-31 -35 -74 -100 -98 -147 -41 -82 -42 -87 -42 -180 1
-82 5 -106 29 -166 40 -98 111 -200 174 -249 16 -13 10 -1 -17 35 -95 124
-127 226 -118 379 6 112 39 221 97 323 22 37 37 67 35 67 -2 0 -29 -28 -60
-62z"/>
<path d="M1376 855 c3 -11 8 -58 11 -105 10 -159 -42 -286 -168 -411 -115
-115 -245 -171 -403 -173 -60 0 -65 -1 -35 -9 60 -16 248 -3 300 20 96 43 247
212 311 349 29 61 30 70 26 162 -3 73 -10 108 -26 142 -12 25 -19 36 -16 25z"/>
<path d="M1478 760 c-24 -135 -79 -309 -119 -376 -45 -74 -143 -165 -216 -199
-32 -16 -85 -41 -118 -57 -69 -32 -31 -28 56 6 133 53 263 166 338 294 68 118
103 277 84 382 l-9 45 -16 -95z"/>
<path d="M144 480 c40 -135 257 -299 478 -360 89 -25 105 -25 53 -1 -22 10
-70 41 -107 69 -37 28 -95 67 -130 87 -103 60 -244 162 -273 197 -26 30 -27
31 -21 8z"/>
</g>
</svg>
