<svg width="14" height="16" viewBox="0 0 14 16" fill="none" xmlns="http://www.w3.org/2000/svg">
<path d="M8.14498 0.101951C8.13972 0.101951 8.02976 0.115119 7.89808 0.122361C7.47671 0.155281 7.05862 0.215854 6.64581 0.305396C6.38113 0.364652 5.66084 0.570073 5.63187 0.590484C5.14597 0.761009 4.6627 0.989474 4.20314 1.22057C3.80415 1.43916 3.18657 1.83815 3.0911 1.94086C3.02611 1.99611 2.95936 2.04924 2.89095 2.1002C2.63615 2.30364 2.1193 2.82575 1.88491 3.11611C1.09286 4.11161 0.653706 5.18678 0.519392 6.44959C0.475938 6.88413 0.519392 8.1002 0.576015 8.1002C0.589183 8.1002 0.786703 8.01329 1.02636 7.90004C1.15211 7.84342 1.30157 7.77363 1.3628 7.74532C1.42469 7.71701 1.75916 7.56557 2.10153 7.40624C2.4485 7.24625 2.79021 7.09021 2.86527 7.05597L3.18657 6.90717C3.28928 6.86109 3.38212 6.82158 3.39463 6.82158C3.40779 6.82158 3.39002 6.76825 3.35644 6.7011C3.14559 6.29533 3.0371 5.84419 3.04041 5.38693C3.04041 4.62845 3.30508 3.90816 3.85024 3.18524C4.10556 2.8631 4.39718 2.57147 4.71933 2.31615C4.76541 2.2806 4.83257 2.23122 4.86878 2.20027C5.09264 2.02843 5.8149 1.63997 5.91564 1.63997C5.93868 1.63997 5.94593 1.65512 5.93868 1.68343C5.93078 1.70976 5.87943 1.96127 5.82017 2.23912C5.76618 2.52486 5.71483 2.77637 5.70693 2.80534C5.70166 2.83036 5.67862 2.94361 5.65821 3.05422C5.63516 3.16483 5.61475 3.27807 5.60948 3.30441C5.60158 3.33206 5.54759 3.60991 5.48307 3.92857C5.42184 4.2446 5.35798 4.55405 5.34481 4.61792C5.33164 4.67981 5.31584 4.75157 5.31386 4.77988L5.21049 5.30726C5.20391 5.33557 5.13609 5.67267 5.05906 6.05784C4.98203 6.44432 4.91487 6.78076 4.90763 6.80907L4.80689 7.31341C4.79251 7.39606 4.77626 7.47838 4.75817 7.56031C4.72986 7.69067 4.70484 7.82235 4.68312 7.95403C4.67365 7.98607 4.66596 8.0186 4.66007 8.05147C4.65349 8.08439 4.61925 8.24899 4.58567 8.42215C4.54946 8.594 4.51654 8.77703 4.50864 8.82312C4.50074 8.86921 4.47769 8.97719 4.45992 9.06212C4.44214 9.13652 4.427 9.21092 4.41383 9.28597C4.29663 9.87853 4.17681 10.4711 4.05566 11.0637L4.00957 11.3125C4.00167 11.3408 3.94768 11.6213 3.88118 11.938L3.74489 12.6267C3.73259 12.6812 3.72227 12.7361 3.71395 12.7913L3.61124 13.316C3.60334 13.3444 3.53355 13.6841 3.45652 14.0666C3.38212 14.4531 3.31496 14.7902 3.31035 14.8132C3.27743 14.9647 3.12205 15.7594 3.11283 15.8206L3.09966 15.9009L5.43435 15.893C7.49975 15.893 8.1891 15.8799 8.54397 15.8469L8.84486 15.8186C8.95547 15.8107 9.06082 15.7982 9.08386 15.7956C9.10691 15.7903 9.18394 15.7798 9.259 15.7725C9.3334 15.7646 9.49009 15.739 9.60597 15.7159C9.72448 15.6948 9.84761 15.6744 9.87855 15.6698C9.9095 15.6619 10.0122 15.6409 10.105 15.6178C10.1952 15.5981 10.2848 15.577 10.3078 15.5717C10.3697 15.5586 10.7885 15.4354 10.8457 15.4124C10.8741 15.3992 11.0024 15.3479 11.1308 15.2939C11.9591 14.9647 12.6432 14.4301 13.1271 13.7328C13.2166 13.6044 13.4635 13.1903 13.4635 13.1699C13.4635 13.162 13.5096 13.0645 13.5623 12.9513C13.7768 12.4798 13.9189 11.9786 13.9837 11.4646C14.0166 11.2125 13.9968 10.2683 13.9508 10.1965C13.9395 10.1553 13.9316 10.1133 13.9271 10.0708C13.8126 9.4787 13.5652 8.92034 13.2034 8.43788C12.8416 7.95542 12.3749 7.56146 11.8386 7.28575C11.5801 7.1502 11.3089 7.04059 11.0288 6.95853L10.905 6.93022L11.1078 6.79656C11.1954 6.73862 11.2809 6.67805 11.3646 6.61616C11.5305 6.48448 11.6918 6.34753 11.8478 6.20466C12.1935 5.85242 12.4042 5.57984 12.6182 5.21509C12.7926 4.91881 12.9776 4.45332 13.029 4.18798C13.0325 4.15656 13.0396 4.12565 13.0501 4.09581C13.1113 3.92133 13.1113 3.03578 13.0501 2.93636C13.0448 2.92846 13.0369 2.88698 13.029 2.84616C13.0103 2.76975 12.9883 2.69419 12.9632 2.61967C12.6899 1.7835 12.0625 1.08692 11.1986 0.660274C10.905 0.515426 10.398 0.325807 10.2301 0.296837C10.1712 0.287565 10.1129 0.274591 10.0557 0.257992C9.85367 0.210244 9.64928 0.173321 9.44335 0.14738C9.1593 0.113802 8.87345 0.0977505 8.58743 0.0993171C8.34514 0.101951 8.14696 0.0986587 8.14432 0.101292L8.14498 0.101951ZM9.22805 1.29497C9.86802 1.46221 10.375 1.88161 10.5988 2.4294C10.7351 2.76123 10.7661 2.94953 10.7661 3.44531C10.7661 3.84891 10.7529 4.03128 10.691 4.28608C10.6004 4.69821 10.4186 5.08477 10.1587 5.41727C9.89895 5.74977 9.56785 6.01974 9.18986 6.2073C9.04502 6.28235 8.91992 6.33898 8.85276 6.36202C8.84486 6.36202 8.82182 6.37519 8.80075 6.38243C8.62101 6.45683 7.86714 6.6267 7.83949 6.59839C7.83158 6.59048 7.86714 6.40284 7.91191 6.17438C7.958 5.94789 8.00409 5.7214 8.00869 5.67267C8.01532 5.63012 8.02411 5.58793 8.03503 5.54626C8.04636 5.50512 8.05385 5.46303 8.05742 5.42051C8.06532 5.36915 8.07848 5.31516 8.08375 5.29475C8.09099 5.27368 8.10153 5.2197 8.1068 5.17097C8.11404 5.12489 8.15552 4.9142 8.19634 4.70812C8.24045 4.50006 8.28193 4.30452 8.28654 4.27094C8.29181 4.23473 8.3458 3.95491 8.41295 3.64546C8.47418 3.3347 8.53146 3.04632 8.53805 3.0055C8.54661 2.96467 8.56702 2.85143 8.58743 2.75596C8.60784 2.65852 8.62693 2.55317 8.63352 2.51894C8.74676 1.91979 8.88042 1.27193 8.88568 1.24625C8.90148 1.2107 8.9219 1.21531 9.22805 1.29497ZM8.46233 7.88424C8.58809 7.90268 8.7968 7.94086 9.00222 7.98958C9.11546 8.01329 9.4394 8.14431 9.6119 8.23385C10.5765 8.73292 11.1084 9.78504 10.9932 10.955C10.9757 11.1018 10.9516 11.2476 10.9208 11.3922C10.9129 11.408 10.9057 11.4515 10.8951 11.4929C10.8305 11.7057 10.7531 11.9143 10.6634 12.1178C9.95097 13.5478 8.42875 14.4222 6.58194 14.4551L6.26854 14.463L6.28369 14.3938L6.312 14.2602C6.3199 14.224 6.33241 14.139 6.34821 14.0725L6.3864 13.8717C6.3943 13.8283 6.4022 13.7743 6.4101 13.746C6.41471 13.7177 6.46606 13.4523 6.52071 13.1567C6.57997 12.8637 6.6412 12.547 6.66161 12.4575L6.71428 12.1948C6.72086 12.1382 6.72876 12.0763 6.73666 12.0565C6.74391 12.0355 6.75181 11.9913 6.75971 11.9578C6.76761 11.9222 6.78605 11.8274 6.7979 11.7451C6.8137 11.6628 6.86769 11.3975 6.91377 11.1558C6.94669 10.9846 6.98093 10.8148 7.01451 10.6443C7.01912 10.6001 7.04282 10.4895 7.0606 10.3941C7.09681 10.2222 7.11195 10.1399 7.135 9.9931L7.19689 9.68233L7.38453 8.71778C7.46156 8.31615 7.53135 7.9672 7.53596 7.9356C7.54386 7.90004 7.57217 7.87897 7.61892 7.87436C7.74204 7.85856 8.31024 7.8691 8.46167 7.88424H8.46233Z" fill="black"/>
</svg>
