<svg width="14" height="14" viewBox="0 0 14 14" fill="none" xmlns="http://www.w3.org/2000/svg">
<path fill-rule="evenodd" clip-rule="evenodd" d="M6.63361 0.110446C6.85528 -0.037141 7.14404 -0.037141 7.3663 0.110446L13.7038 4.3164C13.8887 4.4389 14.0002 4.64599 14.0002 4.86825V9.13137C14.0002 9.35304 13.8893 9.56071 13.7038 9.6838L7.3663 13.8898C7.14462 14.0368 6.85587 14.0368 6.63361 13.8898L0.296098 9.68322C0.205028 9.6228 0.130314 9.5408 0.0786095 9.44452C0.0269054 9.34823 -0.000183336 9.24066 -0.000244141 9.13137L-0.000244141 4.86825C-0.000244141 4.64657 0.110592 4.4389 0.296098 4.31582L6.63361 0.110446ZM1.32513 6.1032V7.88708L2.65983 6.98872L1.32513 6.1032ZM3.85511 7.78208L1.85481 9.12787L6.33727 12.103V9.42946L3.8557 7.78208H3.85511ZM7.66264 9.42946V12.1024L12.1451 9.12729L10.1442 7.78208L7.66264 9.42946ZM11.3395 6.98931L12.6754 7.88767V6.10262L11.3395 6.98931ZM12.1393 4.86825L10.15 6.18837L7.66264 4.51532V1.89725L12.1393 4.86825ZM6.33727 1.89725V4.51474L3.85045 6.18779L1.86064 4.86825L6.33727 1.89725ZM6.99995 5.66685L5.04573 6.98172L6.99995 8.27851L8.95418 6.98172L6.99995 5.66685Z" fill="black"/>
</svg>
