<svg width="32" height="12" viewBox="0 0 32 12" fill="none" xmlns="http://www.w3.org/2000/svg">
<path d="M24.051 2.57504C24.797 2.57504 25.4865 2.65405 26.323 2.82358L25.7269 4.07918C25.2635 3.98873 25.6898 4.06705 25.3396 4.03317V4.21407L25.3621 4.94861L25.3733 5.89811C25.3846 6.13539 25.3846 6.3728 25.396 6.61014V7.08489C25.396 8.57691 25.2717 9.27762 24.8987 9.85401C24.3562 10.7018 23.418 11.12 22.0843 11.12C21.4061 11.12 20.8185 11.0183 20.208 10.7809V9.17592H20.2081C20.8186 9.49234 21.4289 9.63923 22.0731 9.63923C23.2146 9.63923 23.7007 9.17592 23.7007 8.06815V8.03427C23.3616 8.20373 23.0225 8.27162 22.5705 8.27162C21.0446 8.27162 20.0724 7.26567 20.0724 5.67202C20.0724 3.69388 21.5079 2.57498 24.0509 2.57498L24.051 2.57504ZM8.26229 2.688V6.72303C8.26229 8.11334 8.16053 8.78012 7.85542 9.35664C7.57276 9.91052 7.19971 10.2608 6.43123 10.6452L4.81489 9.87658C5.5835 9.51491 5.95642 9.19855 6.19377 8.7123C6.44249 8.21498 6.52168 7.63853 6.52168 6.12402V2.68806H8.26229V2.688ZM29.0251 2.54104C30.7657 2.54104 31.8282 3.6375 31.8282 5.41198C31.8282 7.23185 30.7207 8.37338 28.9573 8.37338C27.2166 8.37338 26.1428 7.27698 26.1428 5.51381C26.1429 3.68257 27.2506 2.5411 29.0251 2.5411V2.54104ZM11.6195 2.56373C12.5124 2.56373 13.1001 2.80101 13.3601 3.26445C13.507 3.52442 13.5522 3.86346 13.5522 4.58694V8.1246C12.7722 8.23761 11.7889 8.31681 11.0656 8.31681C9.60759 8.31681 8.95188 7.80799 8.95188 6.67784C8.95188 5.45705 9.82219 4.89198 11.9585 4.71108V4.32678C11.9585 4.01036 11.8003 3.89741 11.3595 3.89741C10.7152 3.89741 9.99183 4.07818 9.31362 4.42866V3.08361C10.0823 2.72206 10.8169 2.56379 11.6195 2.56379V2.56373ZM5.49317 0V8.05696C4.6003 8.22648 3.94465 8.2943 3.23268 8.2943C1.10765 8.2943 0 7.33355 0 5.49118C0 3.71663 1.17553 2.56385 2.99527 2.56385C3.27781 2.56385 3.49259 2.58636 3.75256 2.65418V0H5.49317ZM17.1352 2.56379C18.0282 2.56379 18.6724 2.76719 19.0569 3.16281C19.4185 3.53573 19.5315 3.9426 19.5315 4.81303V8.22642H17.7908V4.88085C17.7908 4.21401 17.5648 3.96523 16.9431 3.96523C16.7058 3.96523 16.4911 3.98786 16.1406 4.08956V8.22642H14.4V2.95928C15.4285 2.68806 16.2762 2.56379 17.1352 2.56379ZM12.0377 5.85285C10.8847 5.96587 10.5117 6.14677 10.5117 6.59883C10.5117 6.93787 10.7266 7.09615 11.2012 7.09615C11.4612 7.09615 11.6986 7.07358 12.0377 7.01707V5.85285ZM29.0026 3.94266C28.313 3.94266 27.9173 4.49655 27.9173 5.45718C27.9174 6.41799 28.313 6.97182 28.9911 6.97182C29.6581 6.97182 30.0537 6.41793 30.0537 5.45718C30.0537 4.5078 29.6693 3.94266 29.0026 3.94266ZM3.16486 3.96523C2.28324 3.96523 1.77455 4.5078 1.77455 5.45718C1.77455 6.38405 2.26068 6.89268 3.15355 6.89268C3.34563 6.89268 3.5039 6.88137 3.75256 6.84755V4.05561C3.5491 3.98786 3.37958 3.96523 3.16486 3.96523ZM22.48 4.22508C22.062 4.46254 21.847 4.8921 21.847 5.50237C21.847 6.3728 22.2767 6.87005 23.0452 6.87005C23.2826 6.87005 23.4748 6.8248 23.7007 6.75704V6.15808C23.7007 5.95462 23.6895 5.72846 23.6895 5.49118L23.6783 4.6887L23.6669 4.11225V3.97654H23.486C23.147 3.96523 22.7514 4.05562 22.4801 4.22514L22.48 4.22508ZM8.26229 0.00932468V1.79519H6.52168V0.00926252H8.26229V0.00932468Z" fill="#092E20"/>
</svg>
