<svg width="26" height="18" viewBox="0 0 26 18" fill="none" xmlns="http://www.w3.org/2000/svg">
<path d="M5.51466 14.4976C4.8023 14.4976 4.15485 13.9159 4.15485 13.2066C4.15485 12.4974 4.73662 11.9117 5.51466 11.9117C6.29661 11.9117 6.88386 12.4943 6.88386 13.2066C6.88386 13.9159 6.23249 14.4976 5.51935 14.4976H5.51466ZM22.2085 7.44837C22.0654 6.41385 21.4266 5.5709 20.5828 4.92736L20.2536 4.66697L19.9886 4.98835C19.4756 5.5709 19.2684 6.60542 19.3325 7.37877C19.3943 7.96602 19.5804 8.54779 19.9111 8.99976C19.6422 9.13816 19.3169 9.26014 19.0635 9.39464C18.4692 9.58935 17.8906 9.65503 17.3127 9.65503H0.59072L0.525036 10.0374C0.398554 11.2988 0.600869 12.5714 1.11228 13.7313L1.36876 14.1841V14.2443C2.93266 16.8349 5.71406 18 8.74803 18C14.5806 18 19.3614 15.479 21.6291 10.0421C23.1156 10.107 24.6154 9.71993 25.3191 8.29444L25.5068 7.97306L25.1971 7.77679C24.3503 7.25992 23.193 7.1911 22.2249 7.45149L22.2038 7.4554L22.2085 7.44837ZM13.8596 6.41385H11.3269V8.93798H13.8596V6.41385ZM13.8596 3.24147H11.3269V5.76561H13.8596V3.24147ZM13.8596 0.00341797H11.3269V2.52834H13.8596V0.00341797ZM16.9546 6.41385H14.4375V8.93798H16.9624V6.41385H16.9546ZM7.57588 6.41385H5.05878V8.93798H7.5837V6.41385H7.57588ZM10.7318 6.41385H8.23194V8.93798H10.749V6.41385H10.7318ZM4.44808 6.41385H1.94662V8.93798H4.48014V6.41385H4.44808ZM10.7318 3.24147H8.23194V5.76561H10.749V3.2446L10.7318 3.24147ZM7.55868 3.24147H5.06269V5.76561H7.57979V3.2446L7.56337 3.24147H7.55868Z" fill="black"/>
</svg>
