<svg width="24" height="7" viewBox="0 0 24 7" fill="none" xmlns="http://www.w3.org/2000/svg">
<path d="M0.156188 5.42011V2.74913H3.49106V2.59289H0.156188V0.156188H3.70191V0H0V5.5763H3.73312V5.42011H0.156234H0.156188ZM6.74002 1.56197L5.35767 3.3817L4.0065 1.56202H3.80344L5.26392 3.49889L3.66281 5.57625H3.85027L5.35758 3.61594L6.87272 5.57625H7.06795L5.45911 3.4988L6.92737 1.56192H6.73997L6.74002 1.56197ZM7.53661 6.95086V4.45172H7.55222C7.64597 4.81617 7.8308 5.10905 8.10675 5.33034C8.3827 5.55159 8.73413 5.66227 9.16106 5.66227C9.43702 5.66227 9.68175 5.6063 9.89522 5.49436C10.1087 5.38242 10.287 5.23012 10.4302 5.03747C10.5734 4.84481 10.6827 4.62094 10.7582 4.3658C10.8337 4.1107 10.8715 3.84253 10.8715 3.56142C10.8715 3.25941 10.8324 2.98083 10.7543 2.72573C10.6762 2.47059 10.563 2.2493 10.4146 2.06189C10.2662 1.87444 10.0866 1.72861 9.87567 1.62455C9.66483 1.52039 9.42661 1.46831 9.16106 1.46831C8.958 1.46831 8.76928 1.49827 8.59486 1.55813C8.42044 1.61803 8.26556 1.70259 8.13019 1.81195C7.99402 1.92215 7.87549 2.05252 7.77872 2.19853C7.67981 2.34694 7.6043 2.50964 7.55222 2.68669H7.53661V1.56197H7.38042V6.95086H7.53661ZM9.16106 5.51381C8.67169 5.51381 8.27855 5.34591 7.98178 5.01009C7.68502 4.67428 7.53661 4.19133 7.53661 3.56133C7.53661 3.30098 7.57308 3.05367 7.64597 2.81939C7.71886 2.58511 7.82428 2.37942 7.96223 2.20242C8.10023 2.02538 8.27077 1.8848 8.47378 1.78069C8.67684 1.67653 8.90597 1.62445 9.16106 1.62445C9.42141 1.62445 9.64922 1.67653 9.84445 1.78069C10.0397 1.8848 10.2011 2.02669 10.3287 2.20631C10.4562 2.38594 10.5525 2.59162 10.6177 2.82328C10.6827 3.05498 10.7153 3.30098 10.7153 3.56133C10.7153 3.79566 10.6853 4.02867 10.6254 4.26033C10.5656 4.49203 10.4731 4.7003 10.3482 4.88517C10.2233 5.06995 10.0632 5.22094 9.86789 5.33812C9.67261 5.45527 9.43702 5.51381 9.16106 5.51381ZM11.7306 5.5763V3.30361C11.7306 3.08494 11.7618 2.87142 11.8243 2.6632C11.8868 2.45494 11.9831 2.27137 12.1132 2.11261C12.2434 1.9538 12.4087 1.82883 12.6092 1.7377C12.8096 1.64658 13.0478 1.60884 13.3238 1.62445V1.46827C13.0843 1.46311 12.8747 1.48908 12.6951 1.54636C12.5154 1.60364 12.3606 1.68173 12.2304 1.78069C12.1002 1.87959 11.9961 1.99542 11.918 2.12822C11.84 2.2608 11.7821 2.40424 11.7462 2.55384H11.7306V1.56197H11.5744V5.57634H11.7306V5.5763ZM13.519 3.60037H16.8773C16.8878 3.32442 16.8604 3.05892 16.7953 2.80378C16.7302 2.54864 16.6261 2.32214 16.4829 2.12433C16.3397 1.92647 16.1549 1.76766 15.9284 1.64789C15.7019 1.52812 15.4325 1.46827 15.1201 1.46827C14.8962 1.46827 14.6775 1.51514 14.464 1.60889C14.2506 1.70259 14.0631 1.83923 13.9017 2.01886C13.7403 2.19848 13.6102 2.41847 13.5112 2.67886C13.4123 2.93916 13.3628 3.23592 13.3628 3.56916C13.3628 3.86592 13.3967 4.14319 13.4644 4.40091C13.5321 4.65863 13.6362 4.88255 13.7767 5.07258C13.9174 5.26261 14.0983 5.4097 14.3196 5.51381C14.5408 5.61797 14.8077 5.66742 15.1201 5.66222C15.5783 5.66222 15.9636 5.53331 16.2759 5.27564C16.5884 5.01787 16.7732 4.65473 16.8305 4.18612H16.6743C16.6066 4.62872 16.4334 4.96064 16.1549 5.18189C15.8763 5.40319 15.5262 5.51381 15.1044 5.51381C14.8181 5.51381 14.576 5.46436 14.3781 5.36545C14.1803 5.26655 14.0189 5.13112 13.8939 4.95933C13.769 4.78748 13.6765 4.58573 13.6167 4.35403C13.5568 4.12238 13.5242 3.87112 13.519 3.60037ZM16.7211 3.44419H13.5191C13.5346 3.16303 13.5867 2.91052 13.6752 2.68664C13.7638 2.46272 13.8796 2.27137 14.0228 2.11261C14.166 1.9538 14.3326 1.83277 14.5226 1.74942C14.7127 1.66612 14.917 1.62445 15.1357 1.62445C15.396 1.62445 15.6251 1.67264 15.823 1.76897C16.0208 1.8653 16.1861 1.99678 16.3189 2.16337C16.4517 2.32997 16.5519 2.52394 16.6196 2.74519C16.6873 2.96648 16.7211 3.1995 16.7211 3.44419ZM20.1185 2.74913H20.2747C20.2747 2.30133 20.1445 1.97592 19.8842 1.77286C19.6238 1.5698 19.2698 1.46827 18.822 1.46827C18.5721 1.46827 18.3612 1.49953 18.1894 1.56202C18.0176 1.62445 17.877 1.70517 17.7676 1.80408C17.6583 1.90298 17.5802 2.01234 17.5334 2.13211C17.4865 2.25187 17.463 2.36644 17.463 2.47575C17.463 2.69442 17.5021 2.86884 17.5802 2.99902C17.6583 3.12919 17.7807 3.23072 17.9473 3.30361C18.0618 3.35564 18.192 3.40252 18.3378 3.44423C18.4836 3.48586 18.6528 3.53011 18.8454 3.57694C19.0172 3.61866 19.1865 3.66028 19.3531 3.70191C19.5197 3.74358 19.6668 3.79955 19.7943 3.86981C19.9219 3.94012 20.026 4.02994 20.1068 4.1393C20.1874 4.24861 20.2278 4.39181 20.2278 4.56881C20.2278 4.74066 20.1875 4.88644 20.1068 5.00616C20.0267 5.1253 19.9214 5.22532 19.7983 5.29908C19.6733 5.37455 19.534 5.4292 19.3804 5.46305C19.2268 5.49689 19.0771 5.51381 18.9314 5.51381C18.4575 5.51381 18.0944 5.40839 17.8418 5.19755C17.5893 4.98666 17.4631 4.65473 17.4631 4.20173H17.3069C17.3069 4.70681 17.4435 5.07647 17.7169 5.3108C17.9902 5.54508 18.3951 5.66222 18.9314 5.66222C19.1032 5.66222 19.2763 5.64267 19.4507 5.60362C19.6251 5.56458 19.7813 5.50083 19.9193 5.41228C20.0561 5.32499 20.171 5.20743 20.2551 5.06869C20.341 4.92806 20.384 4.75627 20.384 4.5532C20.384 4.36055 20.3462 4.20436 20.2708 4.08459C20.1952 3.96487 20.0963 3.86592 19.974 3.78783C19.8516 3.70973 19.7137 3.64856 19.56 3.60431C19.4056 3.5598 19.2507 3.51683 19.0953 3.47541C18.9042 3.42525 18.7128 3.3758 18.5213 3.32705C18.3573 3.28537 18.205 3.23592 18.0645 3.17864C17.9291 3.12136 17.821 3.03938 17.7403 2.93264C17.6596 2.82591 17.6193 2.67361 17.6193 2.47575C17.6193 2.43933 17.6297 2.37422 17.6505 2.28052C17.6713 2.18677 17.7208 2.09175 17.7989 1.99542C17.877 1.89914 17.9967 1.81322 18.1582 1.7377C18.3195 1.66223 18.5408 1.62445 18.822 1.62445C19.0147 1.62445 19.1903 1.64531 19.3492 1.68694C19.508 1.72861 19.6447 1.79498 19.7592 1.88611C19.8737 1.97723 19.9622 2.09306 20.0247 2.23364C20.0872 2.37427 20.1185 2.54606 20.1185 2.74913ZM23.7345 2.74913H23.8906C23.8906 2.30133 23.7605 1.97592 23.5002 1.77286C23.2398 1.5698 22.8858 1.46827 22.438 1.46827C22.1881 1.46827 21.9772 1.49953 21.8054 1.56202C21.6336 1.62445 21.493 1.70517 21.3837 1.80408C21.2743 1.90298 21.1962 2.01234 21.1493 2.13211C21.1025 2.25187 21.0791 2.36644 21.0791 2.47575C21.0791 2.69442 21.1181 2.86884 21.1963 2.99902C21.2743 3.12919 21.3967 3.23072 21.5633 3.30361C21.6779 3.35564 21.808 3.40252 21.9538 3.44423C22.0995 3.48586 22.2688 3.53011 22.4614 3.57694C22.6333 3.61866 22.8025 3.66028 22.9691 3.70191C23.1357 3.74358 23.2828 3.79955 23.4104 3.86981C23.5379 3.94012 23.6421 4.02994 23.7227 4.1393C23.8035 4.24861 23.8438 4.39181 23.8438 4.56881C23.8438 4.74066 23.8035 4.88644 23.7227 5.00616C23.6427 5.12529 23.5374 5.22531 23.4143 5.29908C23.2893 5.37455 23.15 5.4292 22.9964 5.46305C22.8428 5.49689 22.6931 5.51381 22.5473 5.51381C22.0735 5.51381 21.7104 5.40839 21.4579 5.19755C21.2053 4.98666 21.0791 4.65473 21.0791 4.20173H20.9229C20.9229 4.70681 21.0595 5.07647 21.3329 5.3108C21.6062 5.54508 22.011 5.66222 22.5473 5.66222C22.7192 5.66222 22.8923 5.64267 23.0667 5.60362C23.2411 5.56458 23.3973 5.50083 23.5353 5.41228C23.6721 5.32499 23.787 5.20743 23.8711 5.06869C23.9571 4.92806 24 4.75627 24 4.5532C24 4.36055 23.9623 4.20436 23.8868 4.08459C23.8113 3.96487 23.7124 3.86592 23.59 3.78783C23.4676 3.70973 23.3296 3.64856 23.1761 3.60431C23.0216 3.5598 22.8667 3.51683 22.7114 3.47541C22.5202 3.42525 22.3289 3.3758 22.1373 3.32705C21.9733 3.28537 21.821 3.23592 21.6804 3.17864C21.5451 3.12136 21.437 3.03938 21.3563 2.93264C21.2756 2.82591 21.2353 2.67361 21.2353 2.47575C21.2353 2.43933 21.2457 2.37422 21.2665 2.28052C21.2873 2.18677 21.3368 2.09175 21.4149 1.99542C21.493 1.89914 21.6128 1.81322 21.7741 1.7377C21.9356 1.66223 22.1568 1.62445 22.438 1.62445C22.6307 1.62445 22.8064 1.64531 22.9652 1.68694C23.124 1.72861 23.2606 1.79498 23.3752 1.88611C23.4898 1.97723 23.5783 2.09306 23.6408 2.23364C23.7032 2.37427 23.7345 2.54606 23.7345 2.74913H23.7345Z" fill="#222222"/>
</svg>
