<svg width="12" height="16" viewBox="0 0 12 16" fill="none" xmlns="http://www.w3.org/2000/svg">
<path fill-rule="evenodd" clip-rule="evenodd" d="M3.61 0C1.97867 0 0.666668 1.36867 0.666668 3.04533C0.666668 4.06467 1.152 4.97 1.898 5.52267C1.51352 5.81072 1.20187 6.18485 0.988045 6.61506C0.774214 7.04527 0.664148 7.51959 0.666668 8C0.666668 9.02 1.152 9.92467 1.898 10.4773C1.51352 10.7654 1.20187 11.1395 0.988045 11.5697C0.774214 11.9999 0.664148 12.4743 0.666668 12.9547C0.666668 14.6313 1.97867 16 3.61 16C5.24067 16 6.55334 14.6313 6.55334 12.9547V10.38C7.06889 10.8099 7.71875 11.0455 8.39 11.046C10.0213 11.0453 11.3333 9.67667 11.3333 8C11.3333 6.98 10.8487 6.07533 10.102 5.52267C10.4865 5.23461 10.7981 4.86048 11.012 4.43027C11.2258 4.00007 11.3359 3.52575 11.3333 3.04533C11.3333 1.36867 10.0213 0 8.39 0H3.61ZM1.77267 3.04533C1.77267 1.98467 2.60067 1.13533 3.61 1.13533H5.44667V4.95533H3.61C2.60067 4.95533 1.77267 4.10533 1.77267 3.04533ZM8.39 4.95467H6.55334V1.13467H8.39C9.4 1.13467 10.2273 1.98467 10.2273 3.04533C10.2273 4.10533 9.4 4.95467 8.39 4.95467ZM1.77333 8C1.77333 6.94 2.60134 6.09 3.61067 6.09H5.44733V9.91H3.61C2.6 9.91 1.77267 9.06 1.77267 8H1.77333ZM6.55334 8C6.55334 6.94 7.38134 6.09 8.39067 6.09C9.40067 6.09 10.228 6.93933 10.228 8C10.228 9.06 9.40067 9.91 8.39067 9.91C7.38134 9.91 6.554 9.06067 6.554 8H6.55334ZM1.77333 12.9547C1.77333 11.8947 2.60134 11.0453 3.61067 11.0453H5.44733V12.9547C5.44733 14.0153 4.62067 14.8647 3.61067 14.8647C2.60134 14.8647 1.77333 14.0153 1.77333 12.9547Z" fill="black"/>
</svg>
