<svg width="17" height="15" viewBox="0 0 17 15" fill="none" xmlns="http://www.w3.org/2000/svg">
<path d="M4.78088 12.7107C4.17138 12.2287 3.52038 11.7707 3.07788 11.1222C2.14288 9.98165 1.42138 8.66115 0.929384 7.27065C0.632384 6.36965 0.530884 5.40065 0.147884 4.53115C-0.253116 3.90365 0.215384 3.21365 0.905884 3.01315C1.21338 2.95315 1.75488 2.66415 1.10138 2.87265C0.515384 3.29965 0.460884 2.48215 1.05988 2.43015C1.46888 2.37565 1.61988 2.03965 1.47938 1.74015C1.04188 1.45365 2.54688 1.13865 1.78938 0.708653C1.00038 -0.142847 2.89338 -0.306847 2.42738 0.659153C2.31538 1.40415 3.75038 0.523653 3.41688 1.38315C3.75538 1.79465 4.68238 1.47715 4.65888 2.05515C5.15388 2.08915 5.32288 2.50315 5.78388 2.53415C6.26588 2.75315 7.13288 2.92215 7.29688 3.46115C6.82038 3.83865 5.71888 2.68515 5.66688 3.72665C5.80988 5.26565 5.77388 6.85165 6.33638 8.31765C6.60438 9.20565 7.25038 9.90615 7.83388 10.5962C8.39138 11.2757 9.14638 11.7497 9.91738 12.1537C10.5944 12.4712 11.3239 12.6822 12.0604 12.8152C12.3574 12.5862 12.8859 11.7372 13.3519 12.0962C13.3729 12.4972 12.4274 12.9372 13.3074 12.8932C13.8229 12.7367 14.1824 13.2917 14.6094 12.7917C14.9999 13.2552 16.2394 12.4947 15.9609 13.4452C15.5834 13.6872 15.0314 13.5417 14.6534 13.8747C14.0309 13.5647 13.5334 14.1532 12.8434 14.0802C12.0761 14.2119 11.2988 14.2763 10.5204 14.2727C9.24688 14.1712 7.94488 14.1297 6.73138 13.6867C6.04888 13.4862 5.38238 13.0982 4.78088 12.7102V12.7107ZM5.85638 13.1767C6.52288 13.4632 7.17688 13.7677 7.90838 13.8617C9.06738 14.0207 10.2654 14.2707 11.4294 14.0442C10.9034 13.8047 10.3564 14.1382 9.83288 13.8722C9.20288 14.0077 8.52838 13.8382 7.88738 13.7552C7.16088 13.4322 6.37438 13.2082 5.69188 12.7862C4.84288 12.4762 6.13188 13.1847 6.36388 13.2447C6.89538 13.5467 5.77788 13.0882 5.62188 12.9632C5.17638 12.7132 5.11938 12.7652 5.57738 13.0177C5.66838 13.0722 5.75988 13.1297 5.85588 13.1767H5.85638ZM4.58788 12.2782C5.23388 12.5177 4.58538 11.8252 4.28838 11.8642C4.15838 11.6377 3.78838 11.4917 4.04888 11.3722C3.57738 11.5337 3.55688 10.7522 3.33538 10.8617C2.83788 10.7052 3.14288 10.1507 2.55138 9.80965C2.49688 9.45015 1.96288 9.13765 1.79088 8.59365C1.71538 8.31765 1.18938 7.51815 1.51238 8.26015C1.78838 8.97615 2.27538 9.58815 2.67888 10.2002C2.99388 10.7807 3.36388 11.3902 3.93688 11.7522C4.12938 11.9372 4.31438 12.2212 4.58788 12.2782ZM2.72588 10.2342C2.74688 10.1377 2.84288 10.4452 2.72588 10.2342V10.2342ZM5.36138 12.5647C5.50438 12.5022 5.15588 12.4867 5.36138 12.5647V12.5647ZM5.71288 12.6947C5.67638 12.5177 5.55138 12.7912 5.71288 12.6947V12.6947ZM6.15288 12.8772C6.36138 12.6767 5.82988 12.7522 6.15288 12.8772V12.8772ZM6.90588 13.2967C7.03338 13.1092 6.49688 13.2262 6.90588 13.2967V13.2967ZM5.46038 12.2887C5.78338 12.0777 5.03838 12.2862 5.46038 12.2887V12.2887ZM5.78838 12.4527C5.78038 12.3407 5.67138 12.5022 5.78838 12.4527V12.4527ZM7.43438 13.4812C7.69988 13.6477 8.98138 13.8457 8.17938 13.5487C8.04638 13.5772 6.69238 13.1657 7.43438 13.4812ZM4.82238 11.4447C4.79638 11.3327 4.41088 11.3197 4.82238 11.4447V11.4447ZM5.58788 11.8902C5.78838 11.7522 5.17388 11.7832 5.58788 11.8902V11.8902ZM6.23388 12.2862C6.52038 12.1792 5.76788 12.1767 6.23388 12.2862V12.2862ZM4.50988 11.1037C4.81988 11.3432 5.76238 11.1352 4.98638 10.9632C4.63238 10.7732 3.83538 10.6457 4.37688 11.0752L4.50988 11.1037ZM6.66888 12.4242C6.79888 12.2027 6.12738 12.2967 6.66888 12.4242V12.4242ZM6.01238 11.9007C6.77288 12.1167 5.37438 11.4217 5.82488 11.8227L5.92638 11.8672L6.01238 11.9007ZM7.32988 12.6612C8.04838 12.6692 6.67888 12.5622 7.32988 12.6612V12.6612ZM4.23388 10.6872C4.20538 10.5542 4.05688 10.7002 4.23388 10.6872V10.6872ZM8.54638 13.3432C8.56438 13.1012 8.31188 13.5257 8.54638 13.3432V13.3432ZM5.46038 11.4397C5.41588 11.3122 5.23638 11.4347 5.46038 11.4397V11.4397ZM4.30138 10.6037C4.71288 10.5802 3.73638 10.4212 4.30138 10.6037V10.6037ZM2.92638 9.71565C2.87688 9.51765 2.47838 9.36165 2.92638 9.71565V9.71565ZM6.53338 12.0072C6.45788 11.9187 6.49688 12.0252 6.53338 12.0072V12.0072ZM8.77538 13.3822C8.77038 13.2522 8.65538 13.4317 8.77538 13.3822V13.3822ZM6.33538 11.8017C6.37438 11.6297 5.98138 11.7497 6.33538 11.8017V11.8017ZM4.66338 10.7392C4.96788 10.7077 4.17138 10.5337 4.66338 10.7392V10.7392ZM7.49138 12.4972C7.96788 12.3072 7.02238 12.4032 7.49138 12.4972V12.4972ZM6.02038 11.4997C6.57238 11.5702 5.36388 11.1247 5.89788 11.4607L6.02038 11.4997ZM7.93688 12.6792C8.45238 12.3692 8.28338 13.4007 8.81188 12.7652C9.33288 12.3852 8.36138 13.2367 9.00438 12.8327C9.46788 12.5227 10.1554 12.9812 10.5879 13.1297C10.9004 13.1142 11.2049 13.4007 11.5229 13.2262C12.1399 13.0597 10.3199 12.9812 10.7964 12.6872C10.2339 12.8512 9.81738 12.4917 9.54138 12.1297C8.90838 11.9837 8.17938 11.6607 7.86438 11.1012C7.73438 10.8927 8.04938 11.1327 7.75238 10.7887C7.37238 10.4502 7.18188 10.0647 6.92688 9.65315C6.62238 9.49165 6.58588 9.01265 6.55438 9.63765C6.55688 9.24165 6.18438 8.97615 6.09588 9.08815C6.09338 8.70815 6.49188 8.89815 6.21288 8.61665C6.15288 8.22065 5.95488 7.80915 5.89538 7.36415C5.80438 7.15065 5.88238 6.69215 5.58038 7.17665C5.47088 7.68965 5.54388 6.54665 5.71588 6.92415C5.93988 6.53865 5.63538 6.58315 5.62188 6.63765C5.76788 6.31215 5.71588 5.85115 5.58288 6.02565C5.66088 5.68165 5.70788 4.75765 5.46588 4.92165C5.61188 4.56215 5.74188 3.27315 5.11188 3.76515C4.85388 3.76765 4.41138 3.85915 4.20288 3.96315C4.85938 4.32515 4.13538 4.09315 3.86938 4.03615C3.83538 4.36965 3.56988 4.22615 3.23938 4.22865C3.76788 4.29365 2.98138 4.76765 2.67688 4.58565C2.28388 4.77315 3.01788 5.24215 2.68488 5.38765C2.72638 5.60665 2.08338 5.30965 2.13288 5.81465C1.74988 5.65315 2.08088 6.41615 2.27088 6.15865C2.92188 6.33315 2.72938 6.73415 2.74488 7.11715C2.64088 7.33865 2.22388 6.59365 2.65388 6.62765C2.31538 6.07815 2.27888 6.42965 1.99488 6.68515C1.92988 6.70315 2.71638 7.04965 2.22388 7.22165C2.65638 7.28665 2.66938 7.66715 2.75538 7.90665C3.01588 8.18015 2.96388 7.60715 3.27638 7.93515C3.07838 7.64365 2.23188 7.11465 2.91188 7.28415C2.90938 6.99265 2.78938 6.75565 2.99788 6.76315C3.20638 6.38815 2.78188 7.68765 3.24788 7.21115C3.37788 7.15365 3.40938 6.83615 3.64388 7.23965C3.97988 7.57315 3.76388 7.81265 3.28988 7.50765C3.37338 7.79665 3.92538 7.90065 3.82138 8.35165C3.93088 8.75015 4.08438 8.60165 4.21988 8.58065C4.32388 8.96615 4.38388 8.68215 4.38938 8.49715C4.87138 8.60115 4.75638 8.88515 4.90738 9.08565C5.23788 9.23415 4.43338 8.07015 5.00388 8.73415C5.60038 9.27565 5.22788 9.49965 4.68888 9.41365C5.02988 9.38765 5.13938 9.87465 5.56388 9.85615C5.95188 10.0412 6.21488 10.7492 5.54588 10.4552C5.31388 10.2467 4.49388 9.98615 5.16588 10.3847C5.78588 10.6712 6.27538 10.8432 6.87438 11.2022C7.29888 11.5067 7.48638 11.8587 7.64788 11.9262C7.28838 12.0982 6.56438 11.7882 7.10088 11.6942C6.76738 11.6342 6.38988 11.4652 6.71038 11.8817C6.98388 12.1107 7.67638 12.0847 7.80138 12.1107C7.69438 12.3427 7.51488 12.3607 7.80638 12.3787C7.48088 12.5532 7.91038 12.5792 7.93938 12.6782L7.93688 12.6792ZM7.27538 10.8067C7.07738 10.5982 7.02538 10.2127 7.23888 10.5487C7.34838 10.5932 7.59038 11.1817 7.27538 10.8067ZM9.43438 12.1767C9.55688 12.1717 9.43688 12.2707 9.43438 12.1767V12.1767ZM6.96288 10.2992C6.95488 9.98915 7.03338 10.5412 6.96288 10.2992V10.2992ZM6.74688 10.0127C6.49938 9.53365 7.06188 10.1482 6.74688 10.0127V10.0127ZM4.14788 8.21565C4.29388 8.17665 4.21838 8.46565 4.14788 8.21565V8.21565ZM6.21838 9.33815C6.30688 9.00215 6.32238 9.62215 6.21838 9.33815V9.33815ZM4.75438 8.32265C4.65288 8.13765 4.97038 8.49715 4.75438 8.32265V8.32265ZM6.00988 8.72365C5.77538 8.19765 6.17638 8.43715 6.06188 8.81215L6.00988 8.72365ZM3.84588 7.28065C3.74188 7.10865 3.56738 6.60115 3.62438 6.44715C3.67388 6.69715 4.15838 7.53065 3.86138 6.79115C3.53338 6.17115 4.25438 6.99165 4.33038 7.14815C4.36438 7.30165 4.12738 7.10665 4.28588 7.46565C3.99438 7.05415 4.11388 7.69215 3.84588 7.28065ZM3.17638 6.81965C3.20488 6.41865 3.32988 7.09565 3.17638 6.81965V6.81965ZM3.47838 6.92415C3.62138 6.61965 3.72038 7.34615 3.47838 6.92415V6.92415ZM2.75438 6.36415C2.50438 6.11665 2.32488 5.88765 2.76488 6.21065C2.93688 6.21565 2.38988 5.69265 2.80638 6.04415C3.24638 6.12465 3.02238 6.76565 2.75438 6.36465V6.36415ZM3.13488 6.35365C3.28088 6.21065 3.21038 6.49415 3.13488 6.35365V6.35365ZM3.36938 6.42915C3.15038 6.01765 3.63488 6.60115 3.36938 6.42915V6.42915ZM2.90288 5.98415C2.17888 5.34115 3.81438 6.32265 3.01988 6.10415L2.90288 5.98415ZM4.97838 7.18965C4.66338 7.00215 4.89488 5.86665 5.00188 6.64265C5.30638 6.54365 4.98388 7.04365 5.21038 7.03865C5.17638 7.35365 5.07488 7.46815 4.97838 7.18965ZM5.74438 7.64265C5.77588 7.30165 5.80938 7.87715 5.74438 7.64265V7.64265ZM5.61138 7.51015C5.64538 7.36415 5.61388 7.68215 5.61138 7.51015V7.51015ZM3.04638 5.77315C2.58038 5.13015 4.39788 6.42165 3.34338 5.93465C3.23388 5.90615 3.10138 5.89565 3.04638 5.77315ZM4.52288 6.55665C4.47838 6.01515 4.62188 6.64515 4.52288 6.55665V6.55665ZM5.64538 7.27565C5.73138 6.96815 5.65038 7.47865 5.64538 7.27565V7.27565ZM3.11638 5.52815C3.39238 5.46815 4.26238 6.01265 3.46288 5.68465C3.37438 5.58565 3.18688 5.63015 3.11638 5.52815ZM5.48888 6.71065C5.52038 6.15865 5.65538 6.38015 5.49138 6.78865L5.48888 6.71065ZM3.32238 5.33565C3.43438 5.17165 3.02288 4.58815 3.38238 5.12715C3.53588 5.24965 3.83038 5.33265 3.56988 5.38515C3.97888 5.74465 3.47088 5.48165 3.32238 5.33565ZM5.37188 6.53865C5.44988 5.90865 5.44238 6.90565 5.37188 6.53865V6.53865ZM3.08788 4.75465C3.17388 4.71815 3.13238 4.86915 3.08788 4.75465V4.75465ZM3.62188 5.07265C3.75988 4.78365 3.87438 5.39565 3.62188 5.07265V5.07265ZM5.12938 5.91365C5.12938 5.80165 5.15788 6.07265 5.12938 5.91365V5.91365ZM5.04388 5.71815C4.83538 5.20265 5.23938 5.99165 5.04388 5.71815V5.71815ZM4.91338 5.37965C4.87938 5.16615 5.03588 5.64765 4.91338 5.37965V5.37965ZM5.12438 5.03865C4.98138 4.78615 5.30688 3.92415 5.34038 4.45815C5.18938 4.87465 5.29888 5.10915 5.40288 4.54915C5.59838 4.10915 5.36138 5.41915 5.12438 5.03865ZM5.33788 3.75715C5.40038 3.67915 5.35338 3.84815 5.33788 3.75715V3.75715ZM4.98138 10.8327C4.89538 10.7572 4.99188 10.8797 4.98138 10.8327V10.8327ZM5.72088 11.2052C6.12988 11.3122 6.12988 11.1427 5.75738 11.0932C5.55688 10.9057 4.92688 10.7077 5.49188 11.0697C5.52838 11.1637 5.64838 11.1607 5.71838 11.2052H5.72088ZM4.25988 10.2367C4.48638 10.4062 5.11138 10.7157 4.58038 10.2992C4.75988 10.0937 4.23938 9.98165 4.41088 9.84365C3.97338 9.57265 4.06438 9.59865 4.37438 9.60665C3.84288 9.36965 4.44988 9.38765 4.42138 9.26565C4.21588 9.22665 3.40838 8.90615 3.88488 9.29165C3.40038 9.04665 3.76788 9.38565 3.62188 9.34915C3.12688 9.21365 4.06188 9.72665 3.54388 9.59915C3.82788 9.82315 4.30938 10.1747 3.66388 9.83615C3.57788 9.95865 4.12488 10.1437 4.26038 10.2372L4.25988 10.2367ZM5.03338 10.6817C5.97338 10.9837 4.57238 10.3092 5.03338 10.6817V10.6817ZM8.99138 13.0802C9.00438 12.8927 8.86388 13.2392 8.99138 13.0802V13.0802ZM9.40038 13.2522C9.61638 13.0412 9.40838 13.5857 9.75988 13.2002C9.76238 12.9242 9.74938 12.7602 9.35638 13.0962C9.24688 13.1562 9.19988 13.4112 9.40088 13.2527L9.40038 13.2522ZM2.93688 9.19215C2.87188 8.93165 2.47088 8.93165 2.93688 9.19215V9.19215ZM3.37188 9.47865C3.21038 9.21065 2.79638 9.23665 3.37188 9.47865V9.47865ZM5.84588 10.9712C6.08788 11.1847 6.95538 11.1277 6.14038 10.9972C6.01788 10.8177 5.37238 10.8617 5.84588 10.9712ZM9.24438 13.0697C9.61688 12.7572 8.88488 13.2077 9.24438 13.0697V13.0697ZM10.0174 13.5987C10.0199 13.4997 9.85838 13.6432 10.0174 13.5987V13.5987ZM10.0174 13.4607C10.4289 13.0232 9.61888 13.4867 10.0174 13.4607V13.4607ZM1.86938 8.29915C1.51788 7.79915 1.65038 7.57265 1.31188 7.16615C1.24938 6.85115 0.733884 6.14265 1.04638 6.89515C1.33288 7.33265 1.41888 8.01215 1.86938 8.29865V8.29915ZM9.88988 13.3197C10.6479 12.8327 9.57988 13.1087 9.88988 13.3197V13.3197ZM10.4684 13.5467C10.8484 13.2237 10.2289 13.4792 10.4684 13.5467V13.5467ZM2.80938 8.64015C2.91888 8.47865 2.53088 8.61915 2.80938 8.64015V8.64015ZM10.3459 13.3927C10.7129 13.1557 10.2624 13.1922 10.2809 13.4137L10.3459 13.3927ZM5.36638 10.2522C5.35338 10.0932 5.17088 10.2652 5.36638 10.2522V10.2522ZM5.67388 10.4292C5.57488 10.2312 5.52288 10.4607 5.67388 10.4292V10.4292ZM10.9369 13.5542C11.4059 13.2132 10.6504 13.4867 10.8379 13.6167L10.9369 13.5542ZM10.7574 13.4657C11.1404 13.1452 10.3509 13.6087 10.7574 13.4657V13.4657ZM11.6764 14.0777C11.9344 13.9057 11.3639 14.0232 11.6764 14.0777V14.0777ZM3.04638 8.52315C3.39038 8.60115 4.42388 9.37215 3.81438 8.57765C3.50188 8.48365 3.68938 7.72065 3.36888 7.85615C3.58238 8.21315 3.54588 8.36665 3.09788 8.14015C2.53288 7.86665 2.78038 8.27815 2.88938 8.39015C2.74088 8.42415 3.08988 8.52015 3.04588 8.52315H3.04638ZM1.47588 7.28365C1.53588 7.02865 0.905384 5.88015 1.17638 6.70815C1.27538 6.88015 1.26488 7.21065 1.47588 7.28365ZM4.35638 9.06215C4.17938 8.91365 4.34838 9.03865 4.35638 9.06215V9.06215ZM4.79388 9.16365C4.79388 8.89265 4.31188 9.05415 4.79388 9.16365V9.16365ZM8.58288 11.5517C8.50988 11.3667 8.29638 11.5467 8.58288 11.5517V11.5517ZM8.76488 11.6847C8.73888 11.5807 8.66088 11.7027 8.76488 11.6847V11.6847ZM10.2674 12.6297C10.4104 12.5227 10.0879 12.6167 10.2674 12.6297V12.6297ZM2.25988 7.48415C2.67388 7.32265 1.81738 7.36965 2.25988 7.48415V7.48415ZM8.24938 11.2572C8.24438 10.9892 7.98638 11.3247 8.24938 11.2572V11.2572ZM2.09588 7.10365C2.36138 7.01265 1.85088 7.04365 2.09588 7.10365V7.10365ZM2.86638 7.47615C2.86138 7.38765 2.78588 7.51015 2.86638 7.47615V7.47615ZM12.2599 13.2367C12.6009 13.1692 13.3799 13.4112 13.5049 13.1457C13.0909 13.1377 12.0699 12.8542 12.0229 13.2132L12.1139 13.2287L12.2599 13.2367ZM3.11138 7.53865C3.11638 7.26765 2.90038 7.52815 3.11138 7.53865V7.53865ZM1.08538 6.13215C0.994384 5.61665 0.736384 6.05415 1.08538 6.13215V6.13215ZM1.56988 6.25465C1.57488 6.08815 1.12738 6.10365 1.56988 6.25465V6.25465ZM1.84588 6.39015C1.76538 6.32515 1.78338 6.47065 1.84588 6.39015V6.39015ZM3.57988 7.50215C3.66338 7.42915 3.38738 7.44765 3.57988 7.50215V7.50215ZM1.66088 6.08565C1.61388 5.69515 1.10088 6.02565 1.66088 6.08565V6.08565ZM0.671384 5.44215C0.658384 5.26265 0.574884 5.50965 0.671384 5.44215V5.44215ZM0.816884 5.33015C0.793384 5.11665 0.691884 5.35615 0.816884 5.33015V5.33015ZM1.63238 5.81715C1.97638 5.68165 1.00488 5.53565 1.56188 5.79115L1.63238 5.81715ZM12.5204 12.5412C12.7419 12.3407 12.2419 12.4787 12.5204 12.5412V12.5412ZM13.8379 13.2237C13.9239 12.9632 13.6139 13.2577 13.8379 13.2237V13.2237ZM1.71538 5.39015C1.75188 5.13765 1.44188 5.43965 1.71538 5.39015V5.39015ZM0.556884 4.61415C0.494384 4.25715 0.504884 3.63215 1.09838 3.84315C0.303884 4.00215 1.64788 4.83015 1.47838 4.17665C1.81188 4.19215 2.13188 3.97865 1.95488 4.30415C2.61388 4.23115 3.06938 3.66115 3.70488 3.73915C4.19988 3.67415 4.74138 3.62465 5.27538 3.42665C5.71288 3.39265 6.13488 2.92165 5.89538 2.64265C5.29638 2.59065 4.67138 2.66615 4.00988 2.79615C3.27788 2.94965 2.61388 3.23865 1.87438 3.36365C1.15288 3.46015 2.01738 3.62915 1.81188 3.66815C1.43688 3.79815 2.25988 3.88715 1.76238 4.02215C1.45788 3.96465 1.13738 3.85815 1.26738 3.53515C0.577384 3.62365 -0.0296161 3.91265 0.517384 4.61315L0.556884 4.61415ZM2.22088 3.76765C2.38238 3.17115 3.08788 4.25715 2.48638 3.84565C2.41338 3.79365 2.29638 3.74915 2.22088 3.76765ZM2.25188 3.47865C2.48388 3.30665 2.37438 3.57515 2.25188 3.47865V3.47865ZM2.54888 3.48415C2.56988 3.21065 3.22588 3.63015 2.65588 3.58315L2.54888 3.48415ZM2.95238 3.31965C3.10088 3.14765 2.99688 3.47615 2.95238 3.31965V3.31965ZM3.05688 3.25215C3.30438 2.95515 4.45538 3.06215 3.61138 3.22365C3.38738 3.05415 3.21288 3.32265 3.05688 3.25215ZM4.55938 3.02015C4.52038 2.21015 5.30438 3.30915 4.55938 3.02015V3.02015ZM4.98388 3.01765C5.14038 2.60865 5.58788 2.85365 5.05688 2.93415C5.06738 2.97865 5.04138 3.14515 4.98388 3.01765ZM1.54638 5.18165C2.01238 4.89515 1.05438 4.93415 1.54638 5.18165V5.18165ZM1.88988 5.27815C2.05388 5.10365 1.53588 5.20515 1.88988 5.27815V5.27815ZM0.876884 4.55665C1.14238 4.35365 0.564384 4.47865 0.876884 4.55665V4.55665ZM14.6139 13.1507C14.6219 12.9137 14.4109 13.2577 14.6139 13.1507V13.1507ZM13.2184 12.1977C13.2574 11.9242 13.0389 12.2212 13.2184 12.1977V12.1977ZM14.9969 13.2417C15.3694 13.2417 16.1219 13.1272 15.3144 13.1272C15.1869 13.1482 14.5749 13.1427 14.9969 13.2417ZM2.19188 5.10915C2.49388 5.08815 2.66338 4.77865 2.13438 4.79665C1.31388 4.71065 2.85588 5.07515 2.03038 4.97115C1.91838 5.04415 2.18688 5.13015 2.19188 5.10915ZM2.45788 5.24415C2.42638 5.04865 2.36388 5.34565 2.45788 5.24415V5.24415ZM2.77038 4.40565C2.90338 4.24415 2.59088 4.36115 2.77038 4.40565V4.40565ZM1.77038 2.73415C2.30938 2.55165 3.04388 2.34615 3.29638 2.82265C3.03838 2.51265 3.19238 2.20815 3.43688 2.66115C3.78088 3.12215 3.95238 2.45265 3.72838 2.29915C3.98338 2.61665 4.27288 2.76515 3.90038 2.31715C4.30688 1.83015 3.08538 2.38215 2.80638 2.37715C2.67338 2.43715 1.42638 2.69465 1.77238 2.73415H1.77038ZM2.08538 2.13215C2.39288 1.90015 3.14538 2.26765 2.66088 1.90015C2.61638 1.86115 1.60338 2.17865 2.08538 2.13215ZM3.20238 2.17665C3.56188 2.18715 3.04888 1.69765 3.47588 1.91865C3.40538 1.68965 2.97838 1.64515 2.76738 1.55415C2.65038 1.76515 3.00938 2.17915 3.20238 2.17665ZM2.28338 1.16365C2.40588 0.997153 2.06438 1.24965 2.28338 1.16365V1.16365ZM2.73888 1.27315C3.31438 1.19765 2.59038 1.02565 2.62188 1.26815L2.73888 1.27315ZM1.88738 0.606153C1.48088 0.0746526 2.65038 0.697153 2.23888 0.140153C1.88988 -0.135847 1.55638 0.452653 1.88738 0.606153ZM7.10338 3.41615C7.29088 3.08565 6.33238 2.97065 6.97838 3.29915C7.03838 3.32015 7.02288 3.43965 7.10338 3.41615Z" fill="black"/>
</svg>
