<svg width="18" height="16" viewBox="0 0 18 16" fill="none" xmlns="http://www.w3.org/2000/svg">
<path d="M7.60395 4.17503H4.81641C3.41016 3.77271 0.228867 3.87741 0.228867 7.0434C0.228867 8.19742 0.756211 9.00818 1.45934 9.38288C0.576914 10.265 0.158555 10.6811 0.158555 11.2702C0.158555 11.6921 0.315703 12.081 0.7875 12.2984C0.28582 12.8127 0 13.1863 0 13.8881C0 15.1196 0.986133 15.8372 3.57293 15.8372C6.06023 15.8372 7.50305 14.8239 7.50305 13.0306C7.50305 10.7808 5.91539 10.8637 2.1723 10.6144L2.64445 9.78788C3.60316 10.0786 6.8175 10.1714 6.8175 7.18415C6.8175 6.46696 6.54574 5.968 6.29016 5.60902L7.60535 5.5001L7.60395 4.17503ZM5.37434 13.4524C5.37434 14.682 1.6868 14.6836 1.6868 13.5456C1.6868 13.2335 1.87207 12.9704 2.0584 12.7195C4.79039 12.9228 5.37434 12.8488 5.37434 13.4524ZM3.58805 8.29099C1.7318 8.29099 1.81406 5.56185 3.63023 5.56185C5.37188 5.56185 5.41687 8.29099 3.58805 8.29099ZM8.27437 12.1458V10.9147C9.2148 10.7743 9.23203 10.838 9.23203 10.4928V5.90932C9.23203 5.58332 9.15996 5.62628 8.27437 5.28571L8.43152 4.02315H11.3906V10.4936C11.3906 10.7432 11.4047 10.7743 11.6195 10.8058L12.3483 10.9147V12.1458H8.27437ZM10.1183 2.77594C9.30375 2.77594 8.83195 2.26087 8.83195 1.37186C8.83195 0.482855 9.30375 0 10.1183 0C10.9473 0 11.4191 0.484006 11.4191 1.37186C11.4191 2.25972 10.9473 2.77594 10.1183 2.77594ZM18 11.5414C17.3851 11.8685 16.4848 12.165 15.6698 12.165C13.969 12.165 13.326 11.4171 13.326 9.65442V5.56952C13.326 5.36165 13.3629 5.41381 12.2112 5.41381V4.02584C13.4691 3.86974 13.969 3.18209 14.1261 1.48423H15.4842C15.4842 4.00896 15.4371 3.85479 15.5988 3.85479H17.6133V5.41381H15.4842V9.13973C15.4842 9.40513 15.3113 11.1114 17.6136 10.1691L18 11.5414Z" fill="black"/>
</svg>
