<svg width="16" height="16" viewBox="0 0 16 16" fill="none" xmlns="http://www.w3.org/2000/svg">
<path d="M9.3375 15.5544L7.89056 15.5165L7.96522 14.6396L8.01209 13.8378H7.81884V13.1806H7.70159L7.69203 12.8979L8.04081 12.8269L8.06978 10.4173L7.80797 10.4031L7.82134 9.75071L7.69625 9.7364L7.70634 9.39959H8.05797L8.06109 8.82881L7.71203 8.82443V8.55659H7.5485V8.49659L7.45531 8.5034L7.28316 8.20349L8.60709 7.91934L9.94819 8.23321L9.75444 8.49277L9.65319 8.4984L9.65994 8.53674L9.48097 8.56374L9.46284 8.81281L9.07969 8.82674L9.08366 9.50537L9.96372 9.52096L10.0048 8.3939L10.1068 7.08659L10.0844 6.64359L7.31403 6.80315L4.99097 6.92196L4.95847 7.69202L4.95853 8.4959L4.88447 9.70009L5.90172 9.72346L5.89809 9.27415L5.62569 9.28718L5.603 8.99415L5.40809 9.00871L5.21794 8.69649L6.35712 8.44399L7.57478 8.69434L7.23403 8.95302L7.11928 8.96993L7.10575 9.20502L6.81844 9.23337L6.79134 9.77071L7.03428 9.75243V10.5405H6.83687L6.80472 11.4562L6.89284 12.3131L6.93178 12.5366H7.09197L7.04791 13.4647L6.93075 13.4462L6.96628 14.9803H5.87828L5.96703 13.4592L5.08603 13.5375L5.06844 15.057L3.32916 15.0359L3.49709 14.3423L3.58831 13.6231L2.26728 13.6556L2.48066 15.1905L1.27922 15.1683L1.31453 13.6067L1.09247 13.5697L1.02731 12.7388L1.4055 12.6809V10.4835H1.17525V9.93312L1.10603 9.88856L0.978594 9.61837L1.38713 9.51449V9.00512L1.05712 8.98674L1.03997 8.76409H0.930344L0.619719 8.50537L1.75678 8.16856L3.16434 8.50752L3.01522 8.71624L2.706 8.7859L2.66806 9.06596H2.31025L2.32325 9.5744L3.81831 9.65924L3.96744 6.97265L2.01125 7.0479L1.97187 6.30731H1.87403L1.90463 6.01043L1.98619 5.92318L2.02472 5.92334C2.03262 5.92334 2.11316 5.92524 2.49772 5.98127C2.77134 6.02093 3.34694 5.99231 3.64159 5.97368L3.52875 5.95396L4.06116 5.48043V5.27156L3.87028 5.23499L3.854 4.97218C3.69072 4.98274 3.34253 5.00371 3.13987 5.00371C2.87375 5.00371 2.00153 4.93077 1.96444 4.92768L1.90437 4.92268L1.69153 4.20456L1.26791 4.16646L1.16041 3.82424L0.455844 3.73684L0.165344 3.71502L0 3.42277L0.613969 2.88371L0.383531 2.10309L0.551656 2.16909C0.558281 2.17168 1.23103 2.43443 2.15188 2.65702C3.07772 2.88065 7.79281 2.55962 10.2635 2.23943C12.7 1.92368 15.7297 0.485337 15.7599 0.470837L15.8128 0.445587L15.98 0.594306L15.7823 1.19799L15.5537 1.31781L15.523 1.4754L16 2.51762L15.7773 2.69074L14.6092 3.01418L14.5652 3.13649L14.0292 3.29237L13.7564 4.03071L13.7058 4.03906C13.7001 4.03999 13.1332 4.13406 12.7379 4.22674C12.3924 4.30777 11.5773 4.37043 11.3169 4.38896L11.3033 4.83562L11.1223 4.84093L11.1185 5.02468L11.6421 5.29877L11.6519 5.4174L11.7789 5.40377C12.1963 5.35921 13.4701 5.17127 13.614 5.15002H13.6379L13.6742 5.16068L13.8124 5.24137L13.8284 5.49299L13.6947 5.52731L13.6863 6.40515L11.1213 6.59981L11.071 7.10659L11.1678 8.08134L11.2865 8.62415L11.4269 9.59881L12.5412 9.60724L12.5183 9.09099L12.154 9.09546L12.1457 8.81124H12.0101L12.0019 8.76071L11.8531 8.77306L11.6985 8.48556L12.9521 8.23134L14.3233 8.50718L13.9368 8.70062L13.952 8.7784L13.7789 8.79346L13.8006 9.03459L13.4213 9.06831L13.4174 9.6244L13.6387 9.6439V9.95068L13.5761 9.94096V10.5424L13.4267 10.5468L13.4435 12.3453L13.4757 12.6925H13.6773L13.6961 12.9792L13.6424 12.9901L13.6381 13.5875L13.4708 13.6056L13.505 14.1833L13.6292 15.1293L13.3396 15.2171L12.9367 15.226L12.4389 15.1809L12.4434 14.1738L12.4806 13.6757L11.6589 13.706L11.7122 14.091L11.7473 14.7625L11.9141 15.2678L11.5483 15.3728L10.7298 15.4058L10.0351 15.3521L10.0406 14.4667L10.0678 13.7967L9.18425 13.8122L9.19925 14.2137L9.29081 14.7691L9.33753 15.5544H9.3375ZM9.14053 12.804L10.0333 12.835L9.91278 11.8133L9.94509 10.5152L9.10728 10.461L9.14053 12.804ZM11.5402 10.5471L11.6459 11.6055L11.6795 12.7572L12.541 12.6942V10.5231L11.5402 10.5471L11.5402 10.5471ZM2.28991 10.5167L2.29841 12.6739L3.69122 12.6078L3.60053 12.2474V11.4531L3.72906 10.5915L2.28988 10.5167H2.28991ZM4.87866 10.5738L4.90584 11.2751L4.91009 11.9771L4.96063 12.5921L5.91447 12.5756L5.90291 10.5776L4.87862 10.5738H4.87866ZM4.97372 5.51834L5.40863 5.75456L5.3955 5.85524L6.62731 5.80681L6.611 5.78327L6.64206 5.5644L6.52566 5.38465L6.53378 5.12652L6.40094 4.96999L6.42963 4.79387L5.17191 4.87974L5.15431 5.27843L4.95966 5.28784L4.97372 5.51834ZM8.32134 5.51677L8.31581 5.63999L9.55494 5.57965L9.61166 5.40706L10.1381 5.06215L10.1489 4.84852L9.87716 4.83706L9.88353 4.48665L8.52203 4.65552L8.46847 4.86931V4.92259L8.444 5.04665L8.404 5.14196L8.39587 5.39646L8.32134 5.51677Z" fill="black"/>
</svg>
