<svg width="8" height="16" viewBox="0 0 8 16" fill="none" xmlns="http://www.w3.org/2000/svg">
<path d="M4.34872 15.875L3.92628 15.7349C3.92628 15.7349 3.98253 13.5974 3.20909 13.4473C2.70284 12.8578 3.28391 -11.7196 5.13453 13.3634C4.78341 13.5415 4.51474 13.8485 4.38472 14.2201C4.31503 14.769 4.30297 15.3236 4.34872 15.875Z" fill="black"/>
<path d="M4.57712 13.8101C5.70189 12.9634 6.56326 11.8149 7.06112 10.498C7.55899 9.18116 7.6729 7.75005 7.38962 6.37101C6.56275 2.7232 4.60469 1.52395 4.39375 1.06608C4.21176 0.780962 4.05641 0.479689 3.92969 0.166077L4.0855 10.3299C4.0855 10.3299 3.76262 13.436 4.57712 13.8101Z" fill="black"/>
<path d="M3.71142 13.9451C3.71142 13.9451 0.268358 11.6 0.467483 7.45156C0.486058 6.20093 0.772811 4.96884 1.30837 3.83852C1.84393 2.70821 2.61583 1.70599 3.57192 0.899563C3.68365 0.804639 3.77242 0.68563 3.83156 0.551477C3.89069 0.417323 3.91866 0.271513 3.91336 0.125C4.12767 0.58625 4.0928 7.01169 4.1153 7.76319C4.20248 10.6865 3.95273 13.3933 3.71142 13.9451Z" fill="black"/>
</svg>
