<svg width="20" height="14" viewBox="0 0 20 14" fill="none" xmlns="http://www.w3.org/2000/svg">
<path d="M13.6719 1.72999C13.5744 1.72999 13.5094 1.74312 13.4437 1.75937V1.76937H13.4537C13.4994 1.85374 13.5744 1.91937 13.6325 1.99749C13.6781 2.08562 13.7169 2.17624 13.7594 2.26437L13.7725 2.25124C13.8506 2.19562 13.89 2.10812 13.89 1.97437C13.8575 1.93499 13.8506 1.89312 13.8219 1.85687C13.7894 1.80124 13.7175 1.77249 13.6719 1.72999ZM4.80811 12.7256H4.03686C4.01351 11.498 3.93865 10.2719 3.81248 9.05062H3.80624L2.63124 12.7256H2.04186L0.876235 9.05062H0.866235C0.775652 10.2737 0.721461 11.4993 0.703735 12.7256H0.000610352C0.0386829 11.1845 0.15278 9.64614 0.342485 8.11624H1.29936L2.41249 11.5019H2.41874L3.54186 8.11624H4.45311C4.65498 9.79624 4.77561 11.3325 4.81123 12.7256H4.80811ZM8.15436 9.32437C7.84186 11.03 7.42498 12.2706 6.91436 13.0419C6.51061 13.6375 6.07123 13.9369 5.59248 13.9369C5.46561 13.9369 5.30936 13.8975 5.12061 13.8194V13.4094C5.21498 13.4225 5.32248 13.4319 5.44311 13.4319C5.66748 13.4319 5.84686 13.3669 5.98373 13.2462C6.14623 13.0962 6.22811 12.9275 6.22811 12.7419C6.22811 12.6119 6.16623 12.3512 6.03623 11.9544L5.19311 9.32437H5.95186L6.55748 11.2906C6.69436 11.74 6.75311 12.0494 6.72686 12.2281C7.06186 11.3425 7.29311 10.3725 7.42373 9.32437H8.15436ZM18.4275 12.7256H16.2337V8.11624H16.9725V12.1594H18.4275V12.7256ZM15.6606 12.8369L14.8144 12.42C14.8894 12.3581 14.9606 12.29 15.0262 12.2119C15.3875 11.7919 15.5669 11.1637 15.5669 10.3369C15.5669 8.80999 14.9681 8.04874 13.77 8.04874C13.1837 8.04874 12.725 8.24062 12.3962 8.62812C12.0381 9.05124 11.8556 9.67624 11.8556 10.5C11.8556 11.3106 12.015 11.9031 12.3344 12.2837C12.6275 12.6225 13.0669 12.795 13.6562 12.795C13.8744 12.795 14.0762 12.7687 14.2587 12.7137L15.3625 13.3581L15.665 12.8375L15.6606 12.8369ZM12.9169 11.8012C12.7281 11.5019 12.6369 11.02 12.6369 10.3556C12.6369 9.19374 12.9887 8.61437 13.695 8.61437C14.0631 8.61437 14.3362 8.75437 14.5087 9.03124C14.6944 9.33374 14.7887 9.80937 14.7887 10.4669C14.7887 11.6356 14.4337 12.225 13.7306 12.225C13.3594 12.225 13.0894 12.085 12.9137 11.8081L12.9169 11.8012ZM11.5362 11.45C11.5362 11.8406 11.3931 12.1631 11.1031 12.41C10.8169 12.6606 10.4356 12.7875 9.95061 12.7875C9.49811 12.7875 9.06498 12.6444 8.63873 12.3575L8.83748 11.9606C9.20186 12.1431 9.53061 12.2344 9.83061 12.2344C10.1075 12.2344 10.3256 12.1725 10.4819 12.0519C10.6381 11.9281 10.7325 11.7556 10.7325 11.5375C10.7325 11.2637 10.5406 11.0294 10.1919 10.8344C9.86936 10.6556 9.22186 10.2875 9.22186 10.2875C8.86998 10.0306 8.69748 9.75687 8.69748 9.30437C8.69748 8.92999 8.82748 8.63062 9.08811 8.40249C9.35186 8.16812 9.68686 8.05437 10.1037 8.05437C10.5185 8.05076 10.9251 8.16969 11.2725 8.39624L11.0937 8.79312C10.8145 8.67014 10.5132 8.60487 10.2081 8.60124C9.97061 8.60124 9.78811 8.65999 9.66123 8.77374C9.53436 8.88749 9.45623 9.03061 9.45623 9.20999C9.45623 9.48374 9.65186 9.71811 10.0094 9.91936C10.3381 10.0981 10.9987 10.4762 10.9987 10.4762C11.36 10.73 11.5394 11.0037 11.5394 11.4494L11.5362 11.45ZM19.3525 6.57062C18.9062 6.56062 18.5612 6.60624 18.2719 6.72999C18.1906 6.76249 18.0569 6.76249 18.0437 6.86687C18.0894 6.91249 18.0956 6.98437 18.135 7.04562C18.2031 7.15624 18.3175 7.30624 18.425 7.38437C18.5425 7.47562 18.6594 7.56687 18.78 7.64499C18.9981 7.77874 19.2425 7.85687 19.4569 7.98999C19.5775 8.06812 19.7012 8.16874 19.8212 8.25062C19.8831 8.29312 19.9219 8.36812 20 8.39374V8.37749C19.9606 8.32874 19.9512 8.25687 19.9119 8.19874C19.8562 8.14312 19.8012 8.09437 19.7456 8.03937C19.5826 7.82296 19.3872 7.63302 19.1662 7.47624C18.9875 7.35562 18.5969 7.18624 18.525 6.98124L18.515 6.96812C18.6356 6.95812 18.7787 6.91249 18.8956 6.87999C19.0844 6.83124 19.26 6.84062 19.4556 6.79187C19.5453 6.76858 19.6343 6.74252 19.7225 6.71374V6.66499C19.6219 6.56437 19.5469 6.42749 19.4425 6.33312C19.1549 6.08145 18.8479 5.85282 18.5244 5.64937C18.3487 5.53562 18.1275 5.46374 17.9419 5.36937C17.8769 5.33687 17.7631 5.32062 17.7269 5.26499C17.6262 5.14124 17.5675 4.98187 17.4956 4.83499C17.3321 4.51724 17.1801 4.1937 17.04 3.86499C16.9394 3.64687 16.8806 3.43187 16.7569 3.22999C16.1837 2.28249 15.5587 1.70999 14.6019 1.14687C14.3969 1.02937 14.1494 0.980615 13.8887 0.91874C13.7487 0.91249 13.6119 0.90249 13.4719 0.89624C13.3806 0.856865 13.2931 0.753115 13.215 0.700615C12.8962 0.49874 12.0756 0.0656153 11.8444 0.63874C11.6944 1.00312 12.0656 1.35812 12.1962 1.54062C12.2906 1.67062 12.4112 1.81437 12.4794 1.95749C12.5187 2.05499 12.5281 2.15624 12.5675 2.25687C12.6556 2.50124 12.74 2.77437 12.8575 3.00249C12.9194 3.11999 12.9844 3.24312 13.0625 3.34749C13.1081 3.40937 13.1862 3.43562 13.2025 3.53624C13.1244 3.64999 13.1181 3.81624 13.0756 3.95312C12.8737 4.58437 12.9519 5.36249 13.235 5.82812C13.3262 5.96812 13.5375 6.27437 13.8212 6.15687C14.0719 6.05624 14.0169 5.73999 14.0881 5.45999C14.1044 5.39187 14.0944 5.34937 14.1275 5.30374V5.31687C14.2087 5.47312 14.2869 5.62312 14.3587 5.77937C14.5281 6.05312 14.8306 6.33624 15.0812 6.52499C15.215 6.62562 15.3187 6.79874 15.485 6.85999V6.84374H15.4719C15.4362 6.79499 15.3906 6.77187 15.345 6.73312C15.2394 6.62856 15.1415 6.51661 15.0519 6.39812C14.8206 6.08562 14.6125 5.74062 14.43 5.38562C14.3421 5.21021 14.2618 5.03109 14.1894 4.84874C14.1569 4.78374 14.1569 4.68249 14.1012 4.64999C14.0169 4.77062 13.8931 4.87437 13.8344 5.02749C13.7269 5.26499 13.7169 5.56124 13.675 5.86749C13.6556 5.87374 13.665 5.86749 13.6556 5.88062C13.4769 5.83499 13.415 5.65249 13.3494 5.49624C13.18 5.09937 13.1537 4.46437 13.2975 4.00874C13.3369 3.89124 13.5025 3.52374 13.4375 3.41312C13.4019 3.30562 13.2912 3.24374 13.2325 3.15936C13.1575 3.05499 13.0825 2.92186 13.0306 2.80437C12.8969 2.49187 12.8319 2.14687 12.6856 1.83437C12.6206 1.69124 12.5031 1.54124 12.4087 1.40812C12.3012 1.25812 12.1844 1.15124 12.1025 0.97499C12.0731 0.913115 12.0344 0.81249 12.08 0.746865C12.09 0.70124 12.1125 0.68499 12.1581 0.671865C12.23 0.60999 12.4381 0.688115 12.51 0.72374C12.715 0.80499 12.8875 0.883115 13.06 1.00062C13.1381 1.05624 13.2225 1.15999 13.3237 1.18937H13.4412C13.62 1.22874 13.8187 1.19937 13.985 1.25124C14.2812 1.34562 14.5481 1.48249 14.7887 1.63187C15.5246 2.10424 16.123 2.76215 16.5237 3.53937C16.5919 3.66624 16.6212 3.78374 16.6831 3.91687C16.7969 4.19374 16.9437 4.46999 17.0606 4.73374C17.1775 4.99749 17.2887 5.26437 17.4575 5.48249C17.5419 5.59999 17.8744 5.66124 18.0269 5.71999C18.1375 5.77187 18.31 5.81749 18.4075 5.87624C18.5994 5.99374 18.7881 6.12687 18.9675 6.25687C19.0587 6.31874 19.3356 6.45874 19.3519 6.56937L19.3525 6.57062Z" fill="black"/>
</svg>
