<svg width="16" height="17" viewBox="0 0 16 17" fill="none" xmlns="http://www.w3.org/2000/svg">
<path d="M7.60234 16.3773C7.37424 16.3773 7.14273 16.3188 6.94186 16.2083L4.84126 15.0222C4.52804 14.8532 4.68124 14.7947 4.78338 14.7622C5.20214 14.6224 5.28725 14.5932 5.73325 14.3495C5.78091 14.3235 5.84219 14.3332 5.88986 14.3625L7.50361 15.2757C7.56149 15.3081 7.64319 15.3081 7.69767 15.2757L13.9859 11.8114C14.0437 11.7789 14.0812 11.7139 14.0812 11.6489V4.72032C14.0812 4.65208 14.0437 4.59033 13.9824 4.55458L7.69767 1.09356C7.63979 1.06106 7.56149 1.06106 7.50361 1.09356L1.22223 4.55783C1.16095 4.59033 1.1235 4.65533 1.1235 4.72357V11.6489C1.1235 11.7139 1.16095 11.7789 1.22223 11.8081L2.94493 12.7571C3.88118 13.2023 4.45314 12.6791 4.45314 12.1493V5.31179C4.45314 5.21429 4.53485 5.13955 4.63698 5.13955H5.43365C5.53238 5.13955 5.61749 5.21429 5.61749 5.31179V12.1526C5.61749 13.342 4.93658 14.0245 3.75521 14.0245C3.39092 14.0245 3.10494 14.0245 2.30828 13.6475L0.660481 12.7408C0.251936 12.5166 0 12.0974 0 11.6456V4.72032C0 4.27185 0.251936 3.84938 0.660481 3.62514L6.94186 0.160865C7.34019 -0.0536216 7.86789 -0.0536216 8.26282 0.160865L14.551 3.62839C14.9596 3.85263 15.2115 4.27185 15.2115 4.72357V11.6489C15.2115 12.0974 14.9596 12.5166 14.551 12.7441L8.26282 16.2083C8.06195 16.3188 7.83385 16.3773 7.60234 16.3773ZM12.6785 9.54951C12.6785 8.25285 11.7593 7.90837 9.82891 7.66464C7.8747 7.41765 7.67724 7.29091 7.67724 6.85544C7.67724 6.49471 7.84406 6.01374 9.29099 6.01374C10.5813 6.01374 11.0579 6.28022 11.2554 7.11217C11.2724 7.19017 11.3473 7.24866 11.4324 7.24866H12.2495C12.3006 7.24866 12.3483 7.22916 12.3823 7.19342C12.4164 7.15767 12.4334 7.10892 12.43 7.06017C12.304 5.62702 11.3065 4.96081 9.29099 4.96081C7.4968 4.96081 6.42777 5.68226 6.42777 6.89443C6.42777 8.20735 7.49339 8.57133 9.21269 8.73382C11.2724 8.92556 11.4324 9.21479 11.4324 9.60151C11.4324 10.271 10.8673 10.557 9.54293 10.557C7.87811 10.557 7.51382 10.1572 7.39126 9.36753C7.37764 9.28303 7.30274 9.22129 7.21082 9.22129H6.39713C6.295 9.22129 6.21669 9.29928 6.21669 9.39353C6.21669 10.4042 6.79206 11.6099 9.54633 11.6099C11.5346 11.6066 12.6785 10.8559 12.6785 9.54951Z" fill="black"/>
</svg>
