<svg width="16" height="16" viewBox="0 0 16 16" fill="none" xmlns="http://www.w3.org/2000/svg">
<path d="M0 0.2005V15.7995H16V0.2005H0ZM0.6665 0.867H15.333V15.1325H0.6665V0.867ZM3.867 3.854C3.867 3.8095 3.961 3.776 4.0155 3.776C4.58817 3.75178 5.16132 3.74044 5.7345 3.742C7.5835 3.742 8.302 4.755 8.302 6.052C8.302 7.7475 7.073 8.474 5.5675 8.474C5.3125 8.474 5.2265 8.461 5.0495 8.461V11.0235C5.0495 11.078 5.0285 11.1015 4.974 11.1015H3.9425C3.888 11.1015 3.867 11.0805 3.867 11.026V3.854ZM5.0495 7.396C5.203 7.4065 5.3255 7.4065 5.591 7.4065C6.3695 7.4065 7.104 7.1305 7.104 6.076C7.104 5.2295 6.578 4.8 5.6875 4.8C5.4245 4.8 5.172 4.8105 5.0495 4.821V7.396ZM10.789 6.6015C10.2605 6.6015 10.0835 6.867 10.0835 7.086C10.0835 7.328 10.2035 7.4925 10.909 7.857C11.9535 8.365 12.284 8.8465 12.284 9.5625C12.284 10.6275 11.469 11.2005 10.37 11.2005C9.7865 11.2005 9.2895 11.078 9.003 10.914C8.9615 10.893 8.951 10.8595 8.951 10.8045V9.8255C8.951 9.7605 8.9825 9.737 9.0265 9.771C9.42554 10.0305 9.89152 10.1681 10.3675 10.167C10.896 10.167 11.115 9.948 11.115 9.649C11.115 9.407 10.9615 9.1985 10.292 8.847C9.344 8.394 8.948 7.933 8.948 7.162C8.948 6.3025 9.62 5.589 10.784 5.589C11.357 5.589 11.7605 5.6775 11.982 5.774C12.0365 5.808 12.047 5.8625 12.047 5.907V6.821C12.047 6.8755 12.013 6.9095 11.948 6.886C11.651 6.7115 11.2135 6.5995 10.7865 6.5995L10.789 6.6015Z" fill="black"/>
</svg>
