<svg width="16" height="10" viewBox="0 0 16 10" fill="none" xmlns="http://www.w3.org/2000/svg">
<path d="M4.6745 3.80449H4.044L3.7005 5.56999H4.2605C4.63 5.56999 4.906 5.49999 5.0885 5.35949C5.268 5.22149 5.3905 4.98699 5.453 4.66149C5.515 4.34899 5.4865 4.12749 5.3725 3.99749C5.255 3.86999 5.023 3.80499 4.6745 3.80499V3.80449ZM8 0.791992C3.5805 0.791992 0 2.67749 0 4.99999C0 7.32249 3.5805 9.20799 8 9.20799C12.4195 9.20799 16 7.32249 16 4.99999C16 2.67749 12.4195 0.791992 8 0.791992ZM5.8255 5.76049C5.65241 5.92685 5.4441 6.05211 5.216 6.12699C4.992 6.19749 4.706 6.23649 4.3595 6.23649H3.57L3.354 7.35649H2.4345L3.255 3.14049H5.0205C5.552 3.14049 5.94 3.27849 6.1845 3.55699C6.427 3.83549 6.5025 4.22649 6.403 4.72649C6.36576 4.9245 6.29742 5.11536 6.2005 5.29199C6.10077 5.46695 5.97404 5.62506 5.825 5.76049H5.8255ZM8.5105 6.23649L8.8725 4.36999C8.914 4.15849 8.8985 4.01349 8.825 3.93449C8.755 3.85899 8.601 3.81999 8.367 3.81999H7.6405L7.172 6.23649H6.258L7.078 2.01799H7.9895L7.771 3.14049H8.5835C9.097 3.14049 9.448 3.22899 9.641 3.40599C9.8365 3.58599 9.8935 3.87449 9.8185 4.27349L9.435 6.23699L8.5105 6.23649ZM13.5725 4.72649C13.5364 4.9248 13.468 5.11585 13.37 5.29199C13.2712 5.46675 13.1455 5.62486 12.9975 5.76049C12.8228 5.92606 12.6139 6.05118 12.3855 6.12699C12.1615 6.19749 11.875 6.23649 11.529 6.23649H10.7425L10.524 7.35649H9.6045L10.425 3.14049H12.1905C12.722 3.14049 13.11 3.27849 13.3545 3.55999C13.597 3.83599 13.6725 4.22649 13.573 4.72649H13.5725ZM11.844 3.80449H11.216L10.8725 5.56999H11.43C11.802 5.56999 12.078 5.49999 12.258 5.35949C12.44 5.22149 12.5625 4.98699 12.6255 4.66149C12.6875 4.34899 12.659 4.12749 12.5415 3.99749C12.4275 3.86999 12.193 3.80499 11.844 3.80499V3.80449Z" fill="black"/>
</svg>
