<svg width="16" height="16" viewBox="0 0 16 16" fill="none" xmlns="http://www.w3.org/2000/svg">
<path d="M11.4195 0C10.7973 0.00473445 10.1787 0.0949105 9.58104 0.268L9.53954 0.2815C9.16351 0.216352 8.78309 0.179747 8.40154 0.172C7.61504 0.1585 6.94004 0.3485 6.39604 0.6665C5.85954 0.482 4.74754 0.1585 3.57554 0.224C2.76104 0.268 1.87004 0.5155 1.20804 1.2135C0.552039 1.909 0.203539 2.987 0.276039 4.456C0.296539 4.8595 0.411539 5.518 0.604039 6.3745C0.794039 7.229 1.06254 8.229 1.39854 9.143C1.73454 10.0545 2.10104 10.8745 2.67454 11.4315C2.96054 11.71 3.35654 11.9475 3.82254 11.927C4.14854 11.9135 4.44254 11.7705 4.69804 11.5595C4.82254 11.7235 4.95604 11.7935 5.07554 11.859C5.22954 11.9425 5.37504 11.9995 5.52904 12.0365C5.80504 12.1065 6.27654 12.198 6.82854 12.104C7.02954 12.0678 7.22546 12.0076 7.41204 11.9245L7.43554 12.578C7.46404 13.268 7.48304 13.906 7.68804 14.466C7.72204 14.5575 7.81354 15.026 8.17254 15.4425C8.53454 15.859 9.23704 16.117 10.042 15.945C10.6075 15.825 11.3285 15.6065 11.808 14.9245C12.282 14.2525 12.4955 13.2865 12.5375 11.7185C12.5475 11.6325 12.561 11.5625 12.5735 11.4945L12.6855 11.505H12.699C13.303 11.531 13.9595 11.445 14.509 11.1895C14.993 10.9655 15.3605 10.739 15.6285 10.3355C15.694 10.236 15.769 10.114 15.788 9.9055C15.8085 9.7 15.6885 9.374 15.4905 9.2235C15.095 8.9215 14.845 9.036 14.5765 9.0935C14.3136 9.15016 14.0459 9.18229 13.777 9.1895C14.5475 7.893 15.0995 6.513 15.415 5.2935C15.6025 4.572 15.707 3.908 15.7145 3.3275C15.725 2.747 15.676 2.234 15.329 1.789C14.2405 0.401 12.7115 0.015 11.5295 0.0025H11.42L11.4195 0ZM11.388 0.4275C12.5055 0.417 13.9345 0.7295 14.9605 2.0415C15.1925 2.336 15.2605 2.7655 15.2525 3.297C15.2445 3.8285 15.146 4.461 14.966 5.1565C14.62 6.506 13.9605 8.073 13.0365 9.4825C13.0683 9.50646 13.1033 9.52582 13.1405 9.54C13.333 9.6205 13.773 9.688 14.653 9.5085C14.8745 9.461 15.0365 9.4305 15.2055 9.558C15.2466 9.59259 15.2789 9.63627 15.3001 9.68557C15.3213 9.73487 15.3307 9.78843 15.3275 9.842C15.3184 9.9232 15.2879 10.0005 15.239 10.066C15.0695 10.3205 14.7345 10.5635 14.3045 10.764C13.9245 10.9405 13.377 11.032 12.896 11.0375C12.6515 11.04 12.4275 11.0215 12.2365 10.9615L12.2265 10.9595C12.153 11.665 11.9845 13.061 11.8745 13.696C11.7865 14.2085 11.6325 14.618 11.3385 14.9225C11.044 15.23 10.63 15.412 10.07 15.532C9.37754 15.6805 8.87454 15.5215 8.54954 15.248C8.22454 14.9745 8.07554 14.61 7.98704 14.3885C7.92504 14.235 7.89354 14.037 7.86254 13.771C7.82851 13.4534 7.80582 13.1347 7.79454 12.8155C7.77404 12.2555 7.76604 11.6955 7.77404 11.133C7.48515 11.3979 7.12625 11.5742 6.74004 11.641C6.27954 11.719 5.87054 11.641 5.62604 11.581C5.50541 11.5502 5.38904 11.5047 5.27954 11.4455C5.16504 11.3855 5.05804 11.318 4.98554 11.182C4.94376 11.1041 4.93084 11.014 4.94904 10.9275C4.97065 10.8397 5.0212 10.7616 5.09254 10.706C5.22504 10.5985 5.40004 10.5395 5.66254 10.4845C6.14204 10.385 6.31104 10.318 6.41254 10.2365C6.49854 10.169 6.59804 10.0285 6.76904 9.8225C6.76904 9.815 6.76904 9.8045 6.76654 9.7965C6.4567 9.78707 6.1534 9.70503 5.88104 9.557C5.78254 9.661 5.26904 10.203 4.64704 10.953C4.38654 11.265 4.09754 11.445 3.79054 11.4585C3.48604 11.471 3.20904 11.318 2.97504 11.091C2.50654 10.635 2.13104 9.851 1.80554 8.9655C1.48004 8.08 1.21704 7.0935 1.02704 6.255C0.839539 5.4135 0.727539 4.7365 0.711539 4.411C0.641539 3.023 0.967039 2.0885 1.52404 1.497C2.08104 0.9055 2.84454 0.6845 3.58954 0.6405C4.92554 0.565 6.19604 1.031 6.45154 1.13C6.94604 0.794 7.58404 0.586 8.38104 0.5985C8.75874 0.604055 9.13454 0.653043 9.50104 0.7445L9.51454 0.7365C9.67579 0.680654 9.84005 0.633914 10.0065 0.5965C10.4591 0.490302 10.9218 0.43347 11.3865 0.427L11.388 0.4275ZM11.4895 0.8725H11.391C11.011 0.877 10.6275 0.922 10.2555 1.0025C11.086 1.37 11.7135 1.9345 12.156 2.5025C12.4635 2.893 12.716 3.3225 12.9085 3.781C12.9845 3.9585 13.034 4.1065 13.06 4.221C13.0755 4.2785 13.0835 4.3275 13.0885 4.377C13.0885 4.403 13.091 4.4295 13.078 4.4735C13.078 4.476 13.0755 4.4815 13.0755 4.484C13.097 5.0675 12.951 5.4625 12.932 6.02C12.9195 6.424 13.0235 6.898 13.0495 7.416C13.073 7.9025 13.0135 8.4365 12.698 8.9625C12.724 8.994 12.7475 9.025 12.7735 9.059C13.6095 7.741 14.2135 6.2855 14.534 5.043C14.706 4.3735 14.7965 3.767 14.8045 3.2885C14.8125 2.809 14.724 2.46 14.609 2.3145C13.713 1.171 12.5025 0.879 11.489 0.872L11.4895 0.8725ZM8.29404 1.044C7.50804 1.0465 6.94254 1.284 6.51354 1.6405C6.07004 2.0105 5.77354 2.513 5.58104 3.031C5.34904 3.643 5.26854 4.2365 5.23704 4.6405L5.24754 4.635C5.52514 4.47956 5.82323 4.36392 6.13304 4.2915C6.46654 4.213 6.82854 4.1895 7.15354 4.3175C7.48204 4.442 7.75004 4.7415 7.84904 5.192C8.31854 7.364 7.70354 8.1715 7.47704 8.7805C7.39104 9.002 7.31554 9.226 7.25554 9.455C7.28404 9.4495 7.31304 9.4415 7.34154 9.439C7.50304 9.4265 7.62754 9.4785 7.70104 9.5095C7.93054 9.6055 8.08654 9.8035 8.17254 10.03C8.19365 10.0918 8.20921 10.1554 8.21904 10.22C8.22765 10.247 8.2322 10.2752 8.23254 10.3035C8.20629 11.134 8.20879 11.9652 8.24004 12.7955C8.25604 13.155 8.27954 13.47 8.30804 13.72C8.33654 13.9675 8.37554 14.1575 8.40204 14.2225C8.48754 14.436 8.61254 14.7145 8.83954 14.9045C9.06354 15.095 9.38604 15.22 9.97754 15.095C10.49 14.983 10.8055 14.8315 11.016 14.613C11.2275 14.3915 11.352 14.087 11.4325 13.621C11.555 12.9205 11.797 10.889 11.826 10.509C11.8135 10.2195 11.8545 9.9985 11.9485 9.829C12.042 9.657 12.188 9.5505 12.316 9.493C12.378 9.4645 12.438 9.4465 12.4875 9.4305C12.4352 9.35743 12.3813 9.28542 12.326 9.2145C12.1435 8.99307 11.9935 8.74676 11.8805 8.483C11.8286 8.3724 11.7712 8.26443 11.7085 8.1595C11.6205 8.001 11.5085 7.8 11.391 7.5735C11.1565 7.1255 10.9015 6.579 10.7685 6.0475C10.636 5.516 10.618 4.967 10.9565 4.5815C11.256 4.2375 11.7845 4.095 12.573 4.1755C12.5495 4.105 12.537 4.045 12.4975 3.954C12.3182 3.53277 12.0844 3.1369 11.802 2.7765C11.1325 1.92 10.0465 1.0705 8.37254 1.042L8.29404 1.044ZM3.86754 1.078C3.78331 1.07791 3.6991 1.08058 3.61504 1.086C2.94054 1.1255 2.30504 1.32 1.84904 1.802C1.39354 2.2865 1.09454 3.0755 1.15904 4.3855C1.17254 4.6355 1.27904 5.328 1.46354 6.1535C1.64904 6.9795 1.91154 7.951 2.22704 8.81C2.54154 9.6665 2.92254 10.414 3.28704 10.768C3.46904 10.9425 3.62754 11.0155 3.77104 11.0105C3.91454 11.0025 4.08904 10.919 4.30254 10.664C4.68999 10.1965 5.09219 9.74145 5.50854 9.2995C5.21326 9.04245 4.98741 8.71523 4.8518 8.34798C4.71619 7.98073 4.67518 7.58526 4.73254 7.198C4.80004 6.706 4.81054 6.2445 4.80004 5.88C4.79254 5.526 4.76854 5.292 4.76854 5.1435V5.1275L4.76604 5.123C4.76604 4.3545 4.90204 3.5945 5.16204 2.873C5.34954 2.375 5.62604 1.873 6.04204 1.4635C5.63354 1.328 4.90654 1.1255 4.12054 1.086C4.03648 1.08059 3.95227 1.07793 3.86804 1.078H3.86754ZM12.1325 4.5985C11.68 4.6065 11.427 4.724 11.292 4.8745C11.104 5.091 11.086 5.471 11.2035 5.94C11.32 6.4085 11.563 6.932 11.7895 7.3675C11.9015 7.586 12.011 7.7815 12.099 7.94C12.1905 8.1015 12.2555 8.2135 12.2945 8.3125C12.331 8.401 12.373 8.479 12.4145 8.552C12.589 8.182 12.6205 7.82 12.602 7.44C12.5785 6.9715 12.4695 6.492 12.4875 6.008C12.506 5.44 12.618 5.07 12.626 4.6325C12.4627 4.61091 12.2983 4.59955 12.1335 4.5985H12.1325ZM6.64354 4.6775C6.50554 4.6775 6.36754 4.6955 6.23204 4.727C5.9635 4.79159 5.70497 4.89234 5.46354 5.0265C5.38229 5.07047 5.30485 5.12114 5.23204 5.178L5.21604 5.1905C5.22154 5.29 5.23954 5.524 5.24754 5.873C5.25554 6.253 5.24754 6.737 5.17504 7.261C5.01354 8.4015 5.84154 9.3445 6.81304 9.347C6.87054 9.1125 6.96354 8.875 7.05754 8.6255C7.32804 7.896 7.85954 7.365 7.41154 5.287C7.33904 4.9485 7.19304 4.8105 6.99204 4.7325C6.88019 4.69313 6.76206 4.67466 6.64354 4.678V4.6775ZM11.922 4.8125H11.956C11.9975 4.815 12.0395 4.818 12.0755 4.828C12.108 4.83436 12.1391 4.84674 12.167 4.8645C12.18 4.8723 12.1912 4.88281 12.1997 4.89533C12.2083 4.90784 12.214 4.92206 12.2165 4.937V4.9425C12.2164 4.97448 12.2083 5.00592 12.193 5.034C12.1734 5.06991 12.149 5.10304 12.1205 5.1325C12.0533 5.20767 11.9622 5.2573 11.8625 5.273C11.7661 5.28536 11.6686 5.26129 11.589 5.2055C11.5575 5.18264 11.5287 5.1563 11.503 5.127C11.4805 5.10333 11.4659 5.0733 11.461 5.041C11.4581 5.01019 11.4675 4.97946 11.487 4.9555C11.5102 4.93184 11.5366 4.91163 11.5655 4.8955C11.63 4.859 11.716 4.833 11.8155 4.8195C11.8515 4.815 11.888 4.812 11.922 4.8095V4.8125ZM6.70804 4.9245C6.74204 4.9245 6.78154 4.927 6.81804 4.932C6.92204 4.948 7.01054 4.974 7.08054 5.0155C7.11486 5.03222 7.14507 5.05629 7.16904 5.086C7.19501 5.11733 7.20806 5.15738 7.20554 5.198C7.19842 5.2365 7.18116 5.2724 7.15554 5.302C7.12811 5.3354 7.09574 5.3644 7.05954 5.388C6.9729 5.45025 6.86584 5.47724 6.76004 5.4635C6.65286 5.44627 6.55468 5.39322 6.48154 5.313C6.45083 5.27998 6.42445 5.24319 6.40304 5.2035C6.3797 5.1681 6.36961 5.12561 6.37454 5.0835C6.38504 5.0135 6.44504 4.974 6.50254 4.9535C6.56804 4.932 6.63804 4.925 6.70804 4.9275V4.9245ZM12.7475 9.82H12.745C12.649 9.8565 12.5685 9.87 12.5005 9.9015C12.4317 9.92746 12.3751 9.97832 12.342 10.044C12.2975 10.12 12.264 10.2555 12.274 10.4865C12.3041 10.5081 12.3378 10.5242 12.3735 10.534C12.4855 10.568 12.678 10.5915 12.8915 10.5885C13.316 10.583 13.8395 10.4845 14.118 10.354C14.3457 10.2485 14.557 10.111 14.7455 9.9455C13.816 10.1355 13.293 10.086 12.9695 9.9535C12.8901 9.91911 12.8156 9.87421 12.748 9.82H12.7475ZM7.39354 9.8825H7.38004C7.34404 9.885 7.29404 9.8985 7.19254 10.008C6.96054 10.268 6.88004 10.432 6.69004 10.5835C6.49754 10.737 6.25004 10.818 5.75254 10.9195C5.64642 10.9385 5.54311 10.9707 5.44504 11.0155C5.46304 11.0315 5.46304 11.037 5.49154 11.0495C5.56504 11.0915 5.65804 11.1255 5.73404 11.146C5.94754 11.198 6.29604 11.2605 6.66354 11.198C7.02804 11.1355 7.40804 10.9605 7.73404 10.5055C7.79154 10.4275 7.79604 10.31 7.74954 10.185C7.70304 10.063 7.60104 9.9535 7.53104 9.925C7.48723 9.90461 7.44078 9.89048 7.39304 9.883L7.39354 9.8825Z" fill="black"/>
</svg>
