<svg width="16" height="15" viewBox="0 0 16 15" fill="none" xmlns="http://www.w3.org/2000/svg">
<path d="M15.4254 5.64132C15.1553 4.6068 14.6433 3.82673 13.5525 3.82673H12.146V5.41366C12.146 6.6457 11.0517 7.68356 9.8031 7.68356H6.05724C5.03309 7.68356 4.18431 8.52054 4.18431 9.50149V12.9097C4.18431 13.8806 5.06816 14.4497 6.05724 14.7276C7.24273 15.0591 8.38262 15.1193 9.8031 14.7276C10.7466 14.4665 11.676 13.9409 11.676 12.9097V11.5471H7.93368V11.0918H13.5525C14.6433 11.0918 15.0466 10.3653 15.4254 9.27718C15.8182 8.15562 15.8007 7.07758 15.4254 5.64132ZM10.0381 12.4544C10.4274 12.4544 10.7431 12.759 10.7431 13.134C10.7431 13.5123 10.4274 13.817 10.0381 13.817C9.65228 13.817 9.33311 13.509 9.33311 13.134C9.33662 12.7557 9.65228 12.4544 10.0381 12.4544ZM5.88538 7.23493H9.63124C10.6729 7.23493 11.5042 6.41469 11.5042 5.41701V2.00546C11.5042 1.03456 10.6484 0.308053 9.63124 0.144005C8.3756 -0.0535238 7.01124 -0.0434799 5.88538 0.147353C4.30005 0.415187 4.01245 0.974293 4.01245 2.00881V3.37142H7.76182V3.82673H2.606C1.51521 3.82673 0.561204 4.4528 0.263078 5.64132C-0.080643 7.00393 -0.0946724 7.8543 0.263078 9.27718C0.529638 10.3351 1.16447 11.0918 2.25526 11.0918H3.54246V9.45796C3.54246 8.27614 4.61221 7.23493 5.88538 7.23493ZM5.65038 2.46078C5.26107 2.46078 4.94541 2.15611 4.94541 1.78115C4.94891 1.40283 5.26107 1.09817 5.65038 1.09817C6.03619 1.09817 6.35536 1.40618 6.35536 1.78115C6.35536 2.15611 6.0397 2.46078 5.65038 2.46078Z" fill="black"/>
</svg>
