<svg width="20" height="20" viewBox="0 0 20 20" fill="none" xmlns="http://www.w3.org/2000/svg">
<path d="M10 0C15.522 0 20 4.478 20 10C20 15.522 15.522 20 10 20C4.478 20 0 15.522 0 10C0 4.478 4.478 0 10 0ZM8.013 13.332C8.159 13.869 8.143 14.371 7.992 14.825L7.938 14.975C7.81167 15.2774 7.63331 15.5552 7.411 15.796C6.829 16.429 6.017 16.668 5.669 16.467C5.294 16.248 5.481 15.355 6.156 14.642C6.882 13.877 7.922 13.384 7.922 13.384V13.382L8.013 13.332V13.332ZM16.271 4.281C15.819 2.504 12.874 1.919 10.086 2.91C8.43 3.499 6.633 4.425 5.343 5.633C3.807 7.067 3.563 8.317 3.663 8.839C4.018 10.682 6.544 11.887 7.583 12.781V12.786C7.276 12.935 5.035 14.06 4.511 15.224C3.948 16.449 4.599 17.325 5.024 17.436C6.337 17.799 7.686 17.136 8.412 16.062C9.111 15.011 9.05 13.662 8.749 12.999C9.162 12.887 9.648 12.837 10.273 12.913C12.024 13.112 12.374 14.213 12.297 14.663C12.223 15.112 11.861 15.374 11.736 15.449C11.61 15.525 11.573 15.55 11.585 15.6C11.598 15.674 11.661 15.674 11.76 15.663C11.898 15.638 12.674 15.288 12.711 14.436C12.748 13.362 11.723 12.163 9.898 12.186C9.148 12.2 8.672 12.262 8.335 12.4C8.31226 12.3647 8.28226 12.3347 8.247 12.312C7.122 11.099 5.034 10.249 5.122 8.637C5.147 8.049 5.359 6.5 9.122 4.625C12.21 3.087 14.673 3.513 15.099 4.45C15.709 5.786 13.785 8.275 10.573 8.637C9.348 8.775 8.711 8.3 8.547 8.124C8.373 7.936 8.349 7.924 8.286 7.963C8.185 8.013 8.248 8.175 8.286 8.276C8.386 8.525 8.773 8.964 9.449 9.188C10.036 9.376 11.473 9.487 13.199 8.813C15.136 8.064 16.648 5.975 16.211 4.225L16.271 4.281V4.281Z" fill="black"/>
</svg>
