<svg width="16" height="17" viewBox="0 0 16 17" fill="none" xmlns="http://www.w3.org/2000/svg">
<path d="M14.7618 12.5906L8.26384 16.2496V13.3989L12.3127 11.181L14.7618 12.5906ZM15.2073 12.1895V4.53445L12.8285 5.90245V10.8215L15.2073 12.1895ZM1.19434 12.5906L7.69234 16.2496V13.3989L3.64347 11.181L1.19434 12.5906ZM0.74884 12.1895V4.53445L3.12765 5.90245V10.8215L0.74884 12.1895ZM1.02728 4.03889L7.69234 0.285889V3.0427L3.39147 5.39845L1.02728 4.03889ZM14.9289 4.03889L8.26384 0.285889V3.0427L12.5647 5.39845L14.9289 4.03889ZM7.69234 12.752L3.69915 10.5633V6.23039L7.69234 8.52708V12.752ZM8.26384 12.752L12.257 10.5633V6.23039L8.26384 8.52708V12.752ZM3.96859 5.72976L7.97922 3.53545L11.9898 5.72976L7.97922 8.03545L3.96859 5.72976Z" fill="black"/>
</svg>
