<svg id="Calque_1" data-name="Calque 1" xmlns="http://www.w3.org/2000/svg" viewBox="0 0 248.89 216.9"><defs><style>.cls-1{fill:#00861c;}.cls-2{fill:#1baf45;}</style></defs><title>2</title><path class="cls-1" d="M129.19,215.53h0a4.16,4.16,0,0,0,4.16,4.16H252.07a4.16,4.16,0,0,0,4.16-4.16h0a4.16,4.16,0,0,0-4.16-4.16H133.35A4.16,4.16,0,0,0,129.19,215.53Z" transform="translate(-7.34 -2.83)"/><path class="cls-1" d="M251.17,93h0a5.06,5.06,0,0,0-5.06,5.06V214.62a5.06,5.06,0,0,0,5.06,5.07h0a5.07,5.07,0,0,0,5.06-5.07V98.07A5.07,5.07,0,0,0,251.17,93Z" transform="translate(-7.34 -2.83)"/><path class="cls-1" d="M141.1,4.14a6.38,6.38,0,0,0-8.49.67,5.14,5.14,0,0,0,.67,7.7l115.13,88.38a5,5,0,0,0,6,0,4.08,4.08,0,0,0,.17-6.59Z" transform="translate(-7.34 -2.83)"/><path class="cls-2" d="M19.63,102a6.36,6.36,0,0,1-8.46-.83A5.14,5.14,0,0,1,12,93.48L133.27,3.93a5,5,0,0,1,5.95.09,4.08,4.08,0,0,1,.07,6.6Z" transform="translate(-7.34 -2.83)"/><path class="cls-2" d="M18.74,117.44c27.75,1.3,53.32,12.43,72,31.32s28.16,43.27,26.74,68.62a2.63,2.63,0,0,1-2.85,2.35,2.57,2.57,0,0,1-2.57-2.6c1.35-24-7.65-47.14-25.35-65s-41.93-28.46-68.24-29.7a2.76,2.76,0,0,1-1.87-.81,2.34,2.34,0,0,1-.7-1.79A2.63,2.63,0,0,1,18.74,117.44Z" transform="translate(-7.34 -2.83)"/><path class="cls-2" d="M94.94,216.32a2.62,2.62,0,0,1-2.84,2.35,2.85,2.85,0,0,1-1.88-.81,2.38,2.38,0,0,1-.69-1.79c2.15-38.34-30.24-71.14-72.22-73.11a2.57,2.57,0,0,1-2.57-2.6A2.62,2.62,0,0,1,17.58,138C62.55,140.12,97.25,175.25,94.94,216.32Z" transform="translate(-7.34 -2.83)"/><path class="cls-2" d="M57.25,176.35c10.59,10.72,16,24.54,15.17,38.92a2.63,2.63,0,0,1-2.85,2.34A2.57,2.57,0,0,1,67,215c.73-13-4.16-25.61-13.77-35.34a55.5,55.5,0,0,0-37.08-16.14,2.81,2.81,0,0,1-1.88-.81,2.36,2.36,0,0,1-.69-1.79,2.62,2.62,0,0,1,2.84-2.35A61,61,0,0,1,57.25,176.35Z" transform="translate(-7.34 -2.83)"/><path class="cls-2" d="M38.3,192A15.28,15.28,0,0,1,37,214.9a19,19,0,0,1-25.1-1.18,15.28,15.28,0,0,1,1.29-22.93A19,19,0,0,1,38.3,192ZM15.94,210.4a13.19,13.19,0,0,0,17.44.81,10.61,10.61,0,0,0,.9-15.92,13.21,13.21,0,0,0-17.45-.82A10.62,10.62,0,0,0,15.94,210.4Z" transform="translate(-7.34 -2.83)"/></svg>